<svg width="51" height="50" viewBox="0 0 51 50" fill="none" xmlns="http://www.w3.org/2000/svg">
<rect x="0.900002" y="0.5" width="49" height="49" rx="24.5" stroke="#C8CDD9"/>
<path d="M32.7667 18.8417C32.341 18.4158 31.8357 18.078 31.2795 17.8476C30.7233 17.6171 30.1271 17.4985 29.525 17.4985C28.9229 17.4985 28.3268 17.6171 27.7705 17.8476C27.2143 18.078 26.709 18.4158 26.2833 18.8417L25.4 19.725L24.5167 18.8417C23.6569 17.9819 22.4909 17.4989 21.275 17.4989C20.0591 17.4989 18.8931 17.9819 18.0333 18.8417C17.1736 19.7014 16.6906 20.8675 16.6906 22.0833C16.6906 23.2992 17.1736 24.4653 18.0333 25.325L18.9167 26.2083L25.4 32.6917L31.8833 26.2083L32.7667 25.325C33.1925 24.8994 33.5303 24.394 33.7608 23.8378C33.9912 23.2816 34.1099 22.6854 34.1099 22.0833C34.1099 21.4813 33.9912 20.8851 33.7608 20.3289C33.5303 19.7727 33.1925 19.2673 32.7667 18.8417V18.8417Z" fill="#1E2538" stroke="#1E2538" stroke-width="1.2" stroke-linecap="round" stroke-linejoin="round"/>
</svg>
