<svg width="149" height="22" viewBox="0 0 149 22" fill="none" xmlns="http://www.w3.org/2000/svg">
<path d="M1.2605 16L5.3725 4.8H7.1165L11.2125 16H9.5165L6.2365 6.72L2.9245 16H1.2605ZM3.1165 13.232L3.5645 11.952H8.8285L9.2765 13.232H3.1165ZM12.7443 19.52V7.968H14.1843L14.3443 9.216C14.5149 8.96 14.7283 8.72533 14.9843 8.512C15.2403 8.288 15.5443 8.112 15.8963 7.984C16.2589 7.84533 16.6803 7.776 17.1603 7.776C17.9283 7.776 18.6003 7.96267 19.1763 8.336C19.7629 8.69867 20.2216 9.2 20.5523 9.84C20.8829 10.4693 21.0483 11.1893 21.0483 12C21.0483 12.8107 20.8829 13.5307 20.5523 14.16C20.2216 14.7893 19.7629 15.2853 19.1763 15.648C18.5896 16.0107 17.9123 16.192 17.1443 16.192C16.5149 16.192 15.9603 16.0693 15.4803 15.824C15.0003 15.568 14.6216 15.216 14.3443 14.768V19.52H12.7443ZM16.8883 14.8C17.3789 14.8 17.8163 14.6827 18.2003 14.448C18.5843 14.2133 18.8829 13.888 19.0963 13.472C19.3096 13.0453 19.4163 12.5493 19.4163 11.984C19.4163 11.4293 19.3096 10.9387 19.0963 10.512C18.8829 10.0853 18.5843 9.75467 18.2003 9.52C17.8163 9.28533 17.3789 9.168 16.8883 9.168C16.3869 9.168 15.9443 9.28533 15.5603 9.52C15.1763 9.75467 14.8776 10.0853 14.6643 10.512C14.4616 10.928 14.3603 11.4187 14.3603 11.984C14.3603 12.5493 14.4616 13.0453 14.6643 13.472C14.8776 13.888 15.1763 14.2133 15.5603 14.448C15.9443 14.6827 16.3869 14.8 16.8883 14.8ZM22.9161 19.52V7.968H24.3561L24.5161 9.216C24.6868 8.96 24.9001 8.72533 25.1561 8.512C25.4121 8.288 25.7161 8.112 26.0681 7.984C26.4308 7.84533 26.8521 7.776 27.3321 7.776C28.1001 7.776 28.7721 7.96267 29.3481 8.336C29.9348 8.69867 30.3935 9.2 30.7241 9.84C31.0548 10.4693 31.2201 11.1893 31.2201 12C31.2201 12.8107 31.0548 13.5307 30.7241 14.16C30.3935 14.7893 29.9348 15.2853 29.3481 15.648C28.7615 16.0107 28.0841 16.192 27.3161 16.192C26.6868 16.192 26.1321 16.0693 25.6521 15.824C25.1721 15.568 24.7935 15.216 24.5161 14.768V19.52H22.9161ZM27.0601 14.8C27.5508 14.8 27.9881 14.6827 28.3721 14.448C28.7561 14.2133 29.0548 13.888 29.2681 13.472C29.4815 13.0453 29.5881 12.5493 29.5881 11.984C29.5881 11.4293 29.4815 10.9387 29.2681 10.512C29.0548 10.0853 28.7561 9.75467 28.3721 9.52C27.9881 9.28533 27.5508 9.168 27.0601 9.168C26.5588 9.168 26.1161 9.28533 25.7321 9.52C25.3481 9.75467 25.0495 10.0853 24.8361 10.512C24.6335 10.928 24.5321 11.4187 24.5321 11.984C24.5321 12.5493 24.6335 13.0453 24.8361 13.472C25.0495 13.888 25.3481 14.2133 25.7321 14.448C26.1161 14.6827 26.5588 14.8 27.0601 14.8ZM33.088 16V4.48H34.688V16H33.088ZM37.7973 19.52L39.7653 15.104H39.2853L36.1013 7.968H37.8453L40.3733 13.792L42.9173 7.968H44.5972L39.4773 19.52H37.7973ZM50.1036 19.52V7.968H51.5436L51.7036 9.216C51.8743 8.96 52.0876 8.72533 52.3436 8.512C52.5996 8.288 52.9036 8.112 53.2556 7.984C53.6183 7.84533 54.0396 7.776 54.5196 7.776C55.2876 7.776 55.9596 7.96267 56.5356 8.336C57.1223 8.69867 57.581 9.2 57.9116 9.84C58.2423 10.4693 58.4076 11.1893 58.4076 12C58.4076 12.8107 58.2423 13.5307 57.9116 14.16C57.581 14.7893 57.1223 15.2853 56.5356 15.648C55.949 16.0107 55.2716 16.192 54.5036 16.192C53.8743 16.192 53.3196 16.0693 52.8396 15.824C52.3596 15.568 51.981 15.216 51.7036 14.768V19.52H50.1036ZM54.2476 14.8C54.7383 14.8 55.1756 14.6827 55.5596 14.448C55.9436 14.2133 56.2423 13.888 56.4556 13.472C56.669 13.0453 56.7756 12.5493 56.7756 11.984C56.7756 11.4293 56.669 10.9387 56.4556 10.512C56.2423 10.0853 55.9436 9.75467 55.5596 9.52C55.1756 9.28533 54.7383 9.168 54.2476 9.168C53.7463 9.168 53.3036 9.28533 52.9196 9.52C52.5356 9.75467 52.237 10.0853 52.0236 10.512C51.821 10.928 51.7196 11.4187 51.7196 11.984C51.7196 12.5493 51.821 13.0453 52.0236 13.472C52.237 13.888 52.5356 14.2133 52.9196 14.448C53.3036 14.6827 53.7463 14.8 54.2476 14.8ZM60.2755 16V7.968H61.7155L61.8595 9.488C62.0408 9.12533 62.2702 8.82133 62.5475 8.576C62.8355 8.32 63.1715 8.12267 63.5555 7.984C63.9502 7.84533 64.3928 7.776 64.8835 7.776V9.456H64.3555C64.0142 9.456 63.6942 9.49867 63.3955 9.584C63.0968 9.66933 62.8302 9.808 62.5955 10C62.3715 10.192 62.1955 10.4533 62.0675 10.784C61.9395 11.1147 61.8755 11.5253 61.8755 12.016V16H60.2755ZM69.8149 16.192C69.0575 16.192 68.3749 16.0213 67.7669 15.68C67.1695 15.328 66.6949 14.8373 66.3429 14.208C66.0015 13.568 65.8309 12.8267 65.8309 11.984C65.8309 11.1413 66.0069 10.4053 66.3589 9.776C66.7109 9.136 67.1909 8.64533 67.7989 8.304C68.4069 7.952 69.0842 7.776 69.8309 7.776C70.5989 7.776 71.2815 7.952 71.8789 8.304C72.4869 8.64533 72.9615 9.13067 73.3029 9.76C73.6549 10.3893 73.8309 11.1307 73.8309 11.984C73.8309 12.8267 73.6549 13.568 73.3029 14.208C72.9509 14.8373 72.4709 15.328 71.8629 15.68C71.2655 16.0213 70.5829 16.192 69.8149 16.192ZM69.8149 14.816C70.2522 14.816 70.6469 14.7147 70.9989 14.512C71.3615 14.2987 71.6495 13.9787 71.8629 13.552C72.0869 13.1253 72.1989 12.6027 72.1989 11.984C72.1989 11.3547 72.0922 10.832 71.8789 10.416C71.6655 9.98933 71.3775 9.67467 71.0149 9.472C70.6629 9.25867 70.2735 9.152 69.8469 9.152C69.4309 9.152 69.0362 9.25867 68.6629 9.472C68.3002 9.67467 68.0069 9.98933 67.7829 10.416C67.5695 10.832 67.4629 11.3547 67.4629 11.984C67.4629 12.6027 67.5695 13.1253 67.7829 13.552C68.0069 13.9787 68.2949 14.2987 68.6469 14.512C69.0095 14.7147 69.3989 14.816 69.8149 14.816ZM75.6974 16V7.968H77.1374L77.2494 9.088C77.5054 8.68267 77.8467 8.36267 78.2734 8.128C78.7 7.89333 79.18 7.776 79.7134 7.776C80.1187 7.776 80.4867 7.82933 80.8174 7.936C81.1587 8.04267 81.4574 8.208 81.7134 8.432C81.9694 8.656 82.1774 8.93867 82.3374 9.28C82.6147 8.8 82.9934 8.432 83.4734 8.176C83.964 7.90933 84.4867 7.776 85.0414 7.776C85.692 7.776 86.252 7.904 86.7214 8.16C87.1907 8.416 87.548 8.80533 87.7934 9.328C88.0387 9.85067 88.1614 10.5013 88.1614 11.28V16H86.5774V11.44C86.5774 10.6827 86.4227 10.112 86.1134 9.728C85.8147 9.33333 85.372 9.136 84.7854 9.136C84.3907 9.136 84.0387 9.23733 83.7294 9.44C83.42 9.64267 83.1747 9.94133 82.9934 10.336C82.8227 10.72 82.7374 11.1893 82.7374 11.744V16H81.1374V11.44C81.1374 10.6827 80.9827 10.112 80.6734 9.728C80.364 9.33333 79.9214 9.136 79.3454 9.136C78.9614 9.136 78.6147 9.23733 78.3054 9.44C77.996 9.64267 77.7507 9.94133 77.5694 10.336C77.388 10.72 77.2974 11.1893 77.2974 11.744V16H75.6974ZM93.893 16.192C93.1357 16.192 92.453 16.0213 91.845 15.68C91.2477 15.328 90.773 14.8373 90.421 14.208C90.0797 13.568 89.909 12.8267 89.909 11.984C89.909 11.1413 90.085 10.4053 90.437 9.776C90.789 9.136 91.269 8.64533 91.877 8.304C92.485 7.952 93.1623 7.776 93.909 7.776C94.677 7.776 95.3597 7.952 95.957 8.304C96.565 8.64533 97.0397 9.13067 97.381 9.76C97.733 10.3893 97.909 11.1307 97.909 11.984C97.909 12.8267 97.733 13.568 97.381 14.208C97.029 14.8373 96.549 15.328 95.941 15.68C95.3437 16.0213 94.661 16.192 93.893 16.192ZM93.893 14.816C94.3303 14.816 94.725 14.7147 95.077 14.512C95.4397 14.2987 95.7277 13.9787 95.941 13.552C96.165 13.1253 96.277 12.6027 96.277 11.984C96.277 11.3547 96.1703 10.832 95.957 10.416C95.7437 9.98933 95.4557 9.67467 95.093 9.472C94.741 9.25867 94.3517 9.152 93.925 9.152C93.509 9.152 93.1143 9.25867 92.741 9.472C92.3783 9.67467 92.085 9.98933 91.861 10.416C91.6477 10.832 91.541 11.3547 91.541 11.984C91.541 12.6027 91.6477 13.1253 91.861 13.552C92.085 13.9787 92.373 14.2987 92.725 14.512C93.0877 14.7147 93.477 14.816 93.893 14.816ZM103.504 16.192C102.725 16.192 102.032 16.016 101.424 15.664C100.816 15.312 100.336 14.8213 99.9835 14.192C99.6422 13.552 99.4715 12.8213 99.4715 12C99.4715 11.1573 99.6422 10.4213 99.9835 9.792C100.336 9.16267 100.816 8.672 101.424 8.32C102.032 7.95733 102.725 7.776 103.504 7.776C104.485 7.776 105.306 8.032 105.968 8.544C106.629 9.04533 107.045 9.73333 107.216 10.608H105.552C105.456 10.1493 105.216 9.792 104.832 9.536C104.448 9.28 104 9.152 103.488 9.152C103.061 9.152 102.666 9.25867 102.304 9.472C101.941 9.68533 101.648 10.0053 101.424 10.432C101.21 10.848 101.104 11.3653 101.104 11.984C101.104 12.4427 101.168 12.8533 101.296 13.216C101.424 13.568 101.594 13.8667 101.808 14.112C102.032 14.3467 102.288 14.528 102.576 14.656C102.864 14.7733 103.168 14.832 103.488 14.832C103.84 14.832 104.154 14.7787 104.432 14.672C104.72 14.5547 104.96 14.384 105.152 14.16C105.354 13.936 105.488 13.6693 105.552 13.36H107.216C107.045 14.2133 106.629 14.9013 105.968 15.424C105.306 15.936 104.485 16.192 103.504 16.192ZM112.768 16.192C112.011 16.192 111.328 16.0213 110.72 15.68C110.123 15.328 109.648 14.8373 109.296 14.208C108.955 13.568 108.784 12.8267 108.784 11.984C108.784 11.1413 108.96 10.4053 109.312 9.776C109.664 9.136 110.144 8.64533 110.752 8.304C111.36 7.952 112.037 7.776 112.784 7.776C113.552 7.776 114.235 7.952 114.832 8.304C115.44 8.64533 115.915 9.13067 116.256 9.76C116.608 10.3893 116.784 11.1307 116.784 11.984C116.784 12.8267 116.608 13.568 116.256 14.208C115.904 14.8373 115.424 15.328 114.816 15.68C114.219 16.0213 113.536 16.192 112.768 16.192ZM112.768 14.816C113.205 14.816 113.6 14.7147 113.952 14.512C114.315 14.2987 114.603 13.9787 114.816 13.552C115.04 13.1253 115.152 12.6027 115.152 11.984C115.152 11.3547 115.045 10.832 114.832 10.416C114.619 9.98933 114.331 9.67467 113.968 9.472C113.616 9.25867 113.227 9.152 112.8 9.152C112.384 9.152 111.989 9.25867 111.616 9.472C111.253 9.67467 110.96 9.98933 110.736 10.416C110.523 10.832 110.416 11.3547 110.416 11.984C110.416 12.6027 110.523 13.1253 110.736 13.552C110.96 13.9787 111.248 14.2987 111.6 14.512C111.963 14.7147 112.352 14.816 112.768 14.816ZM122.235 16.192C121.467 16.192 120.789 16.0107 120.203 15.648C119.616 15.2747 119.157 14.7733 118.827 14.144C118.507 13.504 118.347 12.7787 118.347 11.968C118.347 11.1573 118.507 10.4373 118.827 9.808C119.157 9.17867 119.616 8.68267 120.203 8.32C120.8 7.95733 121.488 7.776 122.266 7.776C122.896 7.776 123.451 7.904 123.931 8.16C124.411 8.40533 124.784 8.752 125.051 9.2V4.48H126.651V16H125.211L125.051 14.752C124.88 14.9973 124.667 15.232 124.411 15.456C124.155 15.6693 123.845 15.8453 123.483 15.984C123.131 16.1227 122.715 16.192 122.235 16.192ZM122.507 14.8C122.997 14.8 123.435 14.6827 123.819 14.448C124.203 14.2133 124.501 13.888 124.715 13.472C124.928 13.0453 125.035 12.5493 125.035 11.984C125.035 11.4187 124.928 10.928 124.715 10.512C124.501 10.0853 124.203 9.75467 123.819 9.52C123.435 9.28533 122.992 9.168 122.491 9.168C122.011 9.168 121.579 9.28533 121.195 9.52C120.811 9.75467 120.512 10.0853 120.299 10.512C120.085 10.928 119.979 11.4187 119.979 11.984C119.979 12.5387 120.085 13.0293 120.299 13.456C120.512 13.8827 120.811 14.2133 121.195 14.448C121.579 14.6827 122.016 14.8 122.507 14.8ZM132.486 16.192C131.708 16.192 131.02 16.0213 130.422 15.68C129.825 15.328 129.356 14.8373 129.014 14.208C128.684 13.5787 128.518 12.8427 128.518 12C128.518 11.1573 128.684 10.4213 129.014 9.792C129.356 9.16267 129.825 8.672 130.422 8.32C131.02 7.95733 131.713 7.776 132.502 7.776C133.292 7.776 133.969 7.952 134.534 8.304C135.1 8.64533 135.537 9.10933 135.846 9.696C136.156 10.272 136.31 10.912 136.31 11.616C136.31 11.7227 136.31 11.84 136.31 11.968C136.31 12.0853 136.3 12.2133 136.278 12.352H129.686V11.232H134.71C134.678 10.5707 134.454 10.0533 134.038 9.68C133.622 9.296 133.105 9.104 132.486 9.104C132.06 9.104 131.66 9.2 131.286 9.392C130.924 9.584 130.63 9.872 130.406 10.256C130.193 10.6293 130.086 11.104 130.086 11.68V12.128C130.086 12.7253 130.193 13.2267 130.406 13.632C130.63 14.0373 130.924 14.3467 131.286 14.56C131.649 14.7627 132.044 14.864 132.47 14.864C132.982 14.864 133.404 14.752 133.734 14.528C134.076 14.2933 134.326 13.984 134.486 13.6H136.086C135.937 14.1013 135.697 14.5493 135.366 14.944C135.046 15.328 134.641 15.632 134.15 15.856C133.67 16.08 133.116 16.192 132.486 16.192Z" fill="#00B0B9"/>
<g clip-path="url(#clip0_1217_3448)">
<path d="M144 15L148 11L144 7" stroke="#00B0B9" stroke-width="1.2" stroke-linecap="round" stroke-linejoin="round"/>
</g>
<defs>
<clipPath id="clip0_1217_3448">
<rect width="6" height="10" fill="white" transform="translate(143 6)"/>
</clipPath>
</defs>
</svg>
