<svg width="24" height="27" viewBox="0 0 24 27" fill="none" xmlns="http://www.w3.org/2000/svg">
<path d="M20.84 5.06418C20.3292 4.50776 19.7228 4.06637 19.0554 3.76523C18.3879 3.46408 17.6725 3.30908 16.95 3.30908C16.2275 3.30908 15.5121 3.46408 14.8446 3.76523C14.1772 4.06637 13.5708 4.50776 13.06 5.06418L12 6.2184L10.94 5.06418C9.90831 3.94078 8.50903 3.30966 7.05 3.30966C5.59096 3.30966 4.19169 3.94078 3.16 5.06418C2.1283 6.18758 1.54871 7.71123 1.54871 9.29996C1.54871 10.8887 2.1283 12.4123 3.16 13.5357L4.22 14.69L12 23.1615L19.78 14.69L20.84 13.5357C21.351 12.9796 21.7564 12.3192 22.0329 11.5925C22.3095 10.8657 22.4518 10.0867 22.4518 9.29996C22.4518 8.51325 22.3095 7.73425 22.0329 7.00746C21.7564 6.28067 21.351 5.62034 20.84 5.06418V5.06418Z" stroke="#748BA0" stroke-linecap="round" stroke-linejoin="round"/>
</svg>
