<svg width="24" height="27" viewBox="0 0 24 27" fill="none" xmlns="http://www.w3.org/2000/svg">
<path d="M20.8401 5.06418C20.3294 4.50776 19.7229 4.06637 19.0555 3.76523C18.388 3.46408 17.6726 3.30908 16.9501 3.30908C16.2276 3.30908 15.5122 3.46408 14.8448 3.76523C14.1773 4.06637 13.5709 4.50776 13.0601 5.06418L12.0001 6.2184L10.9401 5.06418C9.90843 3.94078 8.50915 3.30966 7.05012 3.30966C5.59109 3.30966 4.19181 3.94078 3.16012 5.06418C2.12843 6.18758 1.54883 7.71123 1.54883 9.29996C1.54883 10.8887 2.12843 12.4123 3.16012 13.5357L4.22012 14.69L12.0001 23.1615L19.7801 14.69L20.8401 13.5357C21.3511 12.9796 21.7565 12.3192 22.033 11.5925C22.3096 10.8657 22.4519 10.0867 22.4519 9.29996C22.4519 8.51325 22.3096 7.73425 22.033 7.00746C21.7565 6.28067 21.3511 5.62034 20.8401 5.06418V5.06418Z" fill="#FA5555" stroke="#FA5555" stroke-linecap="round" stroke-linejoin="round"/>
</svg>
