<svg width="182" height="182" viewBox="0 0 182 182" fill="none" xmlns="http://www.w3.org/2000/svg">
<rect x="41" y="41" width="100" height="100" rx="50" stroke="white" stroke-width="2"/>
<path d="M105.733 78.6833C104.882 77.8317 103.871 77.1561 102.759 76.6951C101.647 76.2342 100.454 75.9969 99.2501 75.9969C98.046 75.9969 96.8536 76.2342 95.7412 76.6951C94.6288 77.1561 93.618 77.8317 92.7668 78.6833L91.0001 80.45L89.2335 78.6833C87.514 76.9638 85.1818 75.9978 82.7501 75.9978C80.3184 75.9978 77.9863 76.9638 76.2668 78.6833C74.5473 80.4028 73.5813 82.7349 73.5813 85.1667C73.5813 87.5984 74.5473 89.9305 76.2668 91.65L78.0334 93.4167L91.0001 106.383L103.967 93.4167L105.733 91.65C106.585 90.7987 107.261 89.788 107.722 88.6756C108.183 87.5632 108.42 86.3708 108.42 85.1667C108.42 83.9625 108.183 82.7702 107.722 81.6577C107.261 80.5453 106.585 79.5346 105.733 78.6833Z" stroke="white" stroke-width="2" stroke-linecap="round" stroke-linejoin="round"/>
<g filter="url(#filter0_f_3519_2379)">
<circle cx="91" cy="91" r="70" stroke="white" stroke-width="2"/>
</g>
<defs>
<filter id="filter0_f_3519_2379" x="0" y="0" width="182" height="182" filterUnits="userSpaceOnUse" color-interpolation-filters="sRGB">
<feFlood flood-opacity="0" result="BackgroundImageFix"/>
<feBlend mode="normal" in="SourceGraphic" in2="BackgroundImageFix" result="shape"/>
<feGaussianBlur stdDeviation="10" result="effect1_foregroundBlur_3519_2379"/>
</filter>
</defs>
</svg>
