<svg width="9" height="14" viewBox="0 0 9 14" fill="none" xmlns="http://www.w3.org/2000/svg">
<g clip-path="url(#clip0_405_5676)">
<path d="M7.87454 0.00291293L6.05905 0C4.01942 0 2.70131 1.35233 2.70131 3.44542V5.03399H0.875922C0.718186 5.03399 0.590454 5.16187 0.590454 5.3196V7.62126C0.590454 7.77899 0.718332 7.90672 0.875922 7.90672H2.70131V13.7145C2.70131 13.8723 2.82904 14 2.98678 14H5.3684C5.52613 14 5.65386 13.8721 5.65386 13.7145V7.90672H7.78817C7.94591 7.90672 8.07364 7.77899 8.07364 7.62126L8.07451 5.3196C8.07451 5.24386 8.04436 5.17133 7.99091 5.11773C7.93746 5.06414 7.86463 5.03399 7.7889 5.03399H5.65386V3.68734C5.65386 3.04008 5.8081 2.71151 6.65125 2.71151L7.87425 2.71107C8.03184 2.71107 8.15957 2.58319 8.15957 2.4256V0.288381C8.15957 0.130936 8.03198 0.00320423 7.87454 0.00291293Z" fill="#1877F2"/>
</g>
<defs>
<clipPath id="clip0_405_5676">
<rect width="8.75" height="14" fill="white"/>
</clipPath>
</defs>
</svg>
