<svg width="66" height="24" viewBox="0 0 66 24" fill="none" xmlns="http://www.w3.org/2000/svg">
<path d="M26.88 5.44H32.384V6.68H28.24V10.088H32.104V11.32H28.24V16H26.88V5.44ZM34.2733 16V9.432H35.6653V16H34.2733ZM34.9853 7.184C34.7346 7.184 34.5186 7.096 34.3372 6.92C34.1613 6.73867 34.0733 6.52267 34.0733 6.272C34.0733 6.02133 34.1613 5.80533 34.3372 5.624C34.5186 5.44267 34.7346 5.352 34.9853 5.352C35.1506 5.352 35.3026 5.39467 35.4413 5.48C35.5853 5.56533 35.6999 5.67733 35.7853 5.816C35.8706 5.94933 35.9133 6.10133 35.9133 6.272C35.9133 6.52267 35.8226 6.73867 35.6413 6.92C35.4599 7.096 35.2413 7.184 34.9853 7.184ZM39.2411 16H37.8411V4.992H39.2411V16ZM40.6863 9.432H41.9743V6.736H43.3583V9.432H45.0463V10.624H43.3583V13.872C43.3583 14.256 43.4249 14.5387 43.5583 14.72C43.6969 14.9013 43.8809 14.992 44.1103 14.992C44.3129 14.992 44.4703 14.9547 44.5823 14.88C44.6943 14.8053 44.7609 14.7547 44.7823 14.728L45.3343 15.752C45.3023 15.7787 45.2169 15.8293 45.0783 15.904C44.9396 15.9787 44.7609 16.0453 44.5423 16.104C44.3236 16.1627 44.0676 16.192 43.7743 16.192C43.2623 16.192 42.8329 16.0373 42.4863 15.728C42.1449 15.4133 41.9743 14.9173 41.9743 14.24V10.624H40.6863V9.432ZM47.4151 13C47.4205 13.3947 47.5058 13.7547 47.6711 14.08C47.8365 14.4053 48.0818 14.664 48.4071 14.856C48.7378 15.048 49.1431 15.144 49.6231 15.144C50.0285 15.144 50.3725 15.0853 50.6551 14.968C50.9431 14.8453 51.1778 14.7013 51.3591 14.536C51.5405 14.3653 51.6711 14.2133 51.7511 14.08L52.4311 14.92C52.2551 15.176 52.0391 15.4 51.7831 15.592C51.5325 15.784 51.2258 15.9307 50.8631 16.032C50.5005 16.1387 50.0578 16.192 49.5351 16.192C48.8311 16.192 48.2205 16.0427 47.7031 15.744C47.1911 15.44 46.7965 15.0213 46.5191 14.488C46.2418 13.9493 46.1031 13.3333 46.1031 12.64C46.1031 12 46.2338 11.424 46.4951 10.912C46.7565 10.3947 47.1351 9.98667 47.6311 9.688C48.1325 9.38933 48.7351 9.24 49.4391 9.24C50.0845 9.24 50.6445 9.376 51.1191 9.648C51.5991 9.91467 51.9698 10.2933 52.2311 10.784C52.4978 11.2747 52.6311 11.8613 52.6311 12.544C52.6311 12.5867 52.6285 12.664 52.6231 12.776C52.6178 12.8827 52.6125 12.9573 52.6071 13H47.4151ZM51.3031 11.952C51.2978 11.7333 51.2338 11.4933 51.1111 11.232C50.9938 10.9707 50.8018 10.7467 50.5351 10.56C50.2685 10.3733 49.9085 10.28 49.4551 10.28C48.9858 10.28 48.6071 10.3707 48.3191 10.552C48.0365 10.7333 47.8285 10.9547 47.6951 11.216C47.5618 11.472 47.4845 11.7173 47.4631 11.952H51.3031ZM55.5361 16H54.1521V9.432H55.5361V10.568H55.4961C55.5228 10.4293 55.6215 10.256 55.7921 10.048C55.9628 9.84 56.1975 9.65333 56.4961 9.488C56.7948 9.32267 57.1521 9.24 57.5681 9.24C57.8721 9.24 58.1388 9.28267 58.3681 9.368C58.6028 9.448 58.7681 9.528 58.8641 9.608L58.2961 10.76C58.2215 10.6853 58.0908 10.6107 57.9041 10.536C57.7175 10.456 57.4855 10.416 57.2081 10.416C56.8561 10.416 56.5548 10.5253 56.3041 10.744C56.0535 10.9627 55.8615 11.2267 55.7281 11.536C55.6001 11.84 55.5361 12.1227 55.5361 12.384V16ZM62.1165 9.24C62.4578 9.24 62.7752 9.27467 63.0685 9.344C63.3672 9.41333 63.6232 9.496 63.8365 9.592C64.0552 9.688 64.2098 9.77333 64.3005 9.848L63.7485 10.728C63.6418 10.632 63.4498 10.5253 63.1725 10.408C62.8952 10.2853 62.5858 10.224 62.2445 10.224C61.8712 10.224 61.5538 10.2987 61.2925 10.448C61.0312 10.592 60.9005 10.8027 60.9005 11.08C60.9005 11.3573 61.0338 11.5787 61.3005 11.744C61.5725 11.904 61.9352 12.0373 62.3885 12.144C62.7512 12.2293 63.0898 12.344 63.4045 12.488C63.7245 12.632 63.9832 12.832 64.1805 13.088C64.3778 13.3387 64.4765 13.6747 64.4765 14.096C64.4765 14.48 64.3965 14.808 64.2365 15.08C64.0765 15.3467 63.8605 15.5627 63.5885 15.728C63.3165 15.888 63.0125 16.0053 62.6765 16.08C62.3405 16.1547 61.9992 16.192 61.6525 16.192C61.2472 16.192 60.8818 16.1493 60.5565 16.064C60.2312 15.984 59.9565 15.888 59.7325 15.776C59.5138 15.6587 59.3538 15.5573 59.2525 15.472L59.8045 14.48C59.9432 14.6133 60.1698 14.7547 60.4845 14.904C60.8045 15.0533 61.1672 15.128 61.5725 15.128C62.0205 15.128 62.3832 15.0347 62.6605 14.848C62.9378 14.656 63.0765 14.408 63.0765 14.104C63.0765 13.8747 63.0098 13.6907 62.8765 13.552C62.7432 13.4133 62.5645 13.3013 62.3405 13.216C62.1165 13.1307 61.8712 13.056 61.6045 12.992C61.3485 12.9333 61.0978 12.856 60.8525 12.76C60.6125 12.664 60.3912 12.5413 60.1885 12.392C59.9912 12.2373 59.8338 12.0507 59.7165 11.832C59.5992 11.608 59.5405 11.3467 59.5405 11.048C59.5405 10.6693 59.6605 10.3467 59.9005 10.08C60.1405 9.808 60.4552 9.6 60.8445 9.456C61.2338 9.312 61.6578 9.24 62.1165 9.24Z" fill="#666E84"/>
<path d="M3.75 17.75V8.75M14.25 4.25V7.25V4.25ZM14.25 17.75V10.25V17.75ZM9 4.25V13.25V4.25ZM9 17.75V16.25V17.75ZM3.75 4.25V5.75V4.25Z" stroke="#666E84" stroke-width="1.2" stroke-linecap="round"/>
<path d="M12.75 8.75C12.75 9.57843 13.4216 10.25 14.25 10.25C15.0784 10.25 15.75 9.57843 15.75 8.75C15.75 7.92157 15.0784 7.25 14.25 7.25C13.4216 7.25 12.75 7.92157 12.75 8.75Z" stroke="#666E84" stroke-width="1.2" stroke-linecap="round"/>
<path d="M7.5 14.75C7.5 15.5784 8.17157 16.25 9 16.25C9.82843 16.25 10.5 15.5784 10.5 14.75C10.5 13.9216 9.82843 13.25 9 13.25C8.17157 13.25 7.5 13.9216 7.5 14.75Z" stroke="#666E84" stroke-width="1.2" stroke-linecap="round"/>
<path d="M2.25 7.25C2.25 8.07843 2.92157 8.75 3.75 8.75C4.57843 8.75 5.25 8.07843 5.25 7.25C5.25 6.42157 4.57843 5.75 3.75 5.75C2.92157 5.75 2.25 6.42157 2.25 7.25Z" stroke="#666E84" stroke-width="1.2" stroke-linecap="round"/>
</svg>
