<svg width="14" height="13" viewBox="0 0 14 13" fill="none" xmlns="http://www.w3.org/2000/svg">
<g clip-path="url(#clip0_402_2142)">
<path d="M12.1717 2.04897C11.8785 1.75562 11.5303 1.52291 11.1471 1.36414C10.764 1.20538 10.3533 1.12366 9.93851 1.12366C9.52375 1.12366 9.11305 1.20538 8.72988 1.36414C8.3467 1.52291 7.99857 1.75562 7.70535 2.04897L7.09683 2.65749L6.48831 2.04897C5.89604 1.4567 5.09275 1.12396 4.25515 1.12396C3.41755 1.12396 2.61426 1.4567 2.02199 2.04897C1.42972 2.64124 1.09698 3.44453 1.09698 4.28213C1.09698 5.11973 1.42972 5.92302 2.02199 6.51529L2.63051 7.12381L7.09683 11.5901L11.5632 7.12381L12.1717 6.51529C12.465 6.22207 12.6977 5.87394 12.8565 5.49076C13.0153 5.10759 13.097 4.69689 13.097 4.28213C13.097 3.86736 13.0153 3.45667 12.8565 3.07349C12.6977 2.69032 12.465 2.34218 12.1717 2.04897V2.04897Z" stroke="#666E84" stroke-width="1.2" stroke-linecap="round" stroke-linejoin="round"/>
</g>
<defs>
<clipPath id="clip0_402_2142">
<rect width="14" height="13" fill="white"/>
</clipPath>
</defs>
</svg>
