<svg width="40" height="40" viewBox="0 0 40 40" fill="none" xmlns="http://www.w3.org/2000/svg">
<rect width="40" height="40" rx="8" fill="#00B0B9"/>
<path d="M25.3333 26V24.6667C25.3333 23.9594 25.0524 23.2811 24.5523 22.781C24.0522 22.281 23.3739 22 22.6667 22H17.3333C16.6261 22 15.9478 22.281 15.4477 22.781C14.9476 23.2811 14.6667 23.9594 14.6667 24.6667V26" stroke="white" stroke-width="1.5" stroke-linecap="round" stroke-linejoin="round"/>
<path d="M20 19.3333C21.4728 19.3333 22.6667 18.1394 22.6667 16.6667C22.6667 15.1939 21.4728 14 20 14C18.5273 14 17.3333 15.1939 17.3333 16.6667C17.3333 18.1394 18.5273 19.3333 20 19.3333Z" stroke="white" stroke-width="1.5" stroke-linecap="round" stroke-linejoin="round"/>
</svg>
