<svg width="40" height="40" viewBox="0 0 40 40" fill="none" xmlns="http://www.w3.org/2000/svg">
<rect width="40" height="40" rx="8" fill="#00B0B9"/>
<path d="M26.0001 13.3334L24.6667 14.6667M24.6667 14.6667L26.6667 16.6667L24.3334 19L22.3334 17M24.6667 14.6667L22.3334 17M19.5934 19.74C19.9376 20.0797 20.2113 20.4841 20.3986 20.9299C20.5859 21.3757 20.6831 21.8542 20.6847 22.3378C20.6864 22.8214 20.5923 23.3005 20.408 23.7476C20.2237 24.1947 19.9528 24.6009 19.6108 24.9428C19.2689 25.2847 18.8627 25.5557 18.4156 25.74C17.9685 25.9243 17.4894 26.0183 17.0058 26.0167C16.5222 26.0151 16.0438 25.9178 15.5979 25.7305C15.1521 25.5432 14.7477 25.2696 14.4081 24.9254C13.7401 24.2338 13.3706 23.3076 13.3789 22.3462C13.3873 21.3848 13.7729 20.4652 14.4527 19.7854C15.1326 19.1055 16.0522 18.7199 17.0136 18.7116C17.975 18.7032 18.9012 19.0728 19.5927 19.7407L19.5934 19.74ZM19.5934 19.74L22.3334 17" stroke="white" stroke-width="1.5" stroke-linecap="round" stroke-linejoin="round"/>
</svg>
