<svg width="182" height="182" viewBox="0 0 182 182" fill="none" xmlns="http://www.w3.org/2000/svg">
<rect x="41" y="41" width="100" height="100" rx="50" stroke="white" stroke-width="2"/>
<path d="M81 74.3335L76 81.0002V104.333C76 105.218 76.3512 106.065 76.9763 106.691C77.6014 107.316 78.4493 107.667 79.3333 107.667H102.667C103.551 107.667 104.399 107.316 105.024 106.691C105.649 106.065 106 105.218 106 104.333V81.0002L101 74.3335H81Z" stroke="white" stroke-width="2" stroke-linecap="round" stroke-linejoin="round"/>
<path d="M76 81H106" stroke="white" stroke-width="2" stroke-linecap="round" stroke-linejoin="round"/>
<path d="M97.6666 87.6665C97.6666 89.4346 96.9643 91.1303 95.714 92.3805C94.4638 93.6308 92.7681 94.3332 91 94.3332C89.2319 94.3332 87.5362 93.6308 86.2859 92.3805C85.0357 91.1303 84.3333 89.4346 84.3333 87.6665" stroke="white" stroke-width="2" stroke-linecap="round" stroke-linejoin="round"/>
<g filter="url(#filter0_f_3538_2385)">
<circle cx="91" cy="91" r="70" stroke="white" stroke-width="2"/>
</g>
<defs>
<filter id="filter0_f_3538_2385" x="0" y="0" width="182" height="182" filterUnits="userSpaceOnUse" color-interpolation-filters="sRGB">
<feFlood flood-opacity="0" result="BackgroundImageFix"/>
<feBlend mode="normal" in="SourceGraphic" in2="BackgroundImageFix" result="shape"/>
<feGaussianBlur stdDeviation="10" result="effect1_foregroundBlur_3538_2385"/>
</filter>
</defs>
</svg>
