<svg width="50" height="50" viewBox="0 0 50 50" fill="none" xmlns="http://www.w3.org/2000/svg">
<path d="M35.7471 14.2579C34.9347 13.4453 34.459 12.3558 34.4152 11.2076C34.3713 10.0593 34.7626 8.9368 35.5107 8.06457C35.5726 7.99203 35.6048 7.89878 35.6008 7.80352C35.5968 7.70826 35.557 7.61802 35.4893 7.5509L31.1797 3.23645C31.1084 3.16524 31.0119 3.12524 30.9111 3.12524C30.8104 3.12524 30.7138 3.16524 30.6426 3.23645L23.7734 10.1056C23.52 10.359 23.3291 10.6679 23.2158 11.0079C23.103 11.3487 22.9123 11.6586 22.6589 11.9128C22.4055 12.1671 22.0963 12.3588 21.7559 12.4728C21.4156 12.5862 21.1064 12.777 20.8525 13.0304L3.23632 30.6427C3.16512 30.7139 3.12512 30.8105 3.12512 30.9113C3.12512 31.012 3.16512 31.1086 3.23632 31.1798L7.54589 35.4894C7.61302 35.5571 7.70325 35.5969 7.79851 35.6009C7.89378 35.6049 7.98703 35.5727 8.05957 35.5109C8.93161 34.7619 10.0543 34.37 11.203 34.4136C12.3517 34.4571 13.4415 34.933 14.2543 35.7458C15.0672 36.5586 15.543 37.6484 15.5865 38.7971C15.6301 39.9458 15.2382 41.0685 14.4893 41.9406C14.4274 42.0131 14.3952 42.1063 14.3992 42.2016C14.4032 42.2969 14.443 42.3871 14.5107 42.4542L18.8203 46.7638C18.8915 46.835 18.9881 46.875 19.0889 46.875C19.1896 46.875 19.2862 46.835 19.3574 46.7638L36.9746 29.1476C37.228 28.8937 37.4188 28.5845 37.5322 28.2443C37.6451 27.9035 37.8357 27.5936 38.0892 27.3394C38.3426 27.0851 38.6518 26.8934 38.9922 26.7794C39.3322 26.6662 39.6412 26.4752 39.8945 26.2218L46.7637 19.3527C46.8349 19.2814 46.8749 19.1848 46.8749 19.0841C46.8749 18.9834 46.8349 18.8868 46.7637 18.8155L42.4541 14.506C42.387 14.4383 42.2967 14.3984 42.2015 14.3944C42.1062 14.3904 42.013 14.4226 41.9404 14.4845C41.0694 15.2339 39.9476 15.6269 38.7994 15.5849C37.6511 15.5429 36.561 15.069 35.7471 14.2579V14.2579Z" stroke="#1E2538" stroke-width="2" stroke-miterlimit="10"/>
<path d="M16.96 24.1359C16.96 23.8692 17.0026 23.5866 17.088 23.2879C17.1733 22.9892 17.312 22.7172 17.504 22.4719C17.696 22.2266 17.936 22.0239 18.224 21.8639C18.5226 21.6932 18.88 21.6079 19.296 21.6079C19.712 21.6079 20.0693 21.6932 20.368 21.8639C20.6666 22.0239 20.912 22.2266 21.104 22.4719C21.296 22.7172 21.4346 22.9892 21.52 23.2879C21.6053 23.5866 21.648 23.8692 21.648 24.1359C21.648 24.4772 21.5893 24.8079 21.472 25.1279C21.3653 25.4372 21.2053 25.7092 20.992 25.9439C20.7893 26.1786 20.544 26.3652 20.256 26.5039C19.968 26.6426 19.648 26.7119 19.296 26.7119C18.944 26.7119 18.624 26.6426 18.336 26.5039C18.048 26.3652 17.8026 26.1786 17.6 25.9439C17.3973 25.7092 17.2373 25.4372 17.12 25.1279C17.0133 24.8079 16.96 24.4772 16.96 24.1359ZM18 24.1359C18 24.5199 18.0426 24.8452 18.128 25.1119C18.2133 25.3679 18.32 25.5759 18.448 25.7359C18.576 25.8959 18.7146 26.0132 18.864 26.0879C19.024 26.1519 19.168 26.1839 19.296 26.1839C19.4346 26.1839 19.5786 26.1519 19.728 26.0879C19.8773 26.0132 20.016 25.8959 20.144 25.7359C20.272 25.5759 20.3786 25.3679 20.464 25.1119C20.5493 24.8452 20.592 24.5199 20.592 24.1359C20.592 23.9119 20.5706 23.6826 20.528 23.4479C20.4853 23.2132 20.416 22.9999 20.32 22.8079C20.224 22.6159 20.0906 22.4612 19.92 22.3439C19.76 22.2159 19.552 22.1519 19.296 22.1519C19.0506 22.1519 18.8426 22.2159 18.672 22.3439C18.512 22.4612 18.3786 22.6159 18.272 22.8079C18.176 22.9999 18.1066 23.2132 18.064 23.4479C18.0213 23.6826 18 23.9119 18 24.1359ZM22.208 30.6639C22.208 30.3866 22.2506 30.0986 22.336 29.7999C22.4213 29.4906 22.56 29.2132 22.752 28.9679C22.944 28.7119 23.1893 28.5039 23.488 28.3439C23.7866 28.1839 24.144 28.1039 24.56 28.1039C24.976 28.1039 25.3333 28.1839 25.632 28.3439C25.9306 28.5039 26.176 28.7119 26.368 28.9679C26.56 29.2132 26.6986 29.4906 26.784 29.7999C26.8693 30.0986 26.912 30.3866 26.912 30.6639C26.912 30.9946 26.8533 31.3146 26.736 31.6239C26.6293 31.9226 26.4693 32.1892 26.256 32.4239C26.0533 32.6479 25.808 32.8292 25.52 32.9679C25.232 33.1066 24.912 33.1759 24.56 33.1759C24.208 33.1759 23.888 33.1066 23.6 32.9679C23.312 32.8292 23.0613 32.6479 22.848 32.4239C22.6453 32.1892 22.4853 31.9226 22.368 31.6239C22.2613 31.3146 22.208 30.9946 22.208 30.6639ZM23.264 30.6639C23.264 31.0479 23.3066 31.3679 23.392 31.6239C23.4773 31.8799 23.584 32.0879 23.712 32.2479C23.8506 32.4079 23.9946 32.5199 24.144 32.5839C24.2933 32.6479 24.432 32.6799 24.56 32.6799C24.688 32.6799 24.8266 32.6479 24.976 32.5839C25.136 32.5199 25.28 32.4079 25.408 32.2479C25.536 32.0879 25.6426 31.8799 25.728 31.6239C25.8133 31.3679 25.856 31.0479 25.856 30.6639C25.856 30.4292 25.8346 30.1892 25.792 29.9439C25.76 29.6986 25.6906 29.4799 25.584 29.2879C25.488 29.0959 25.3546 28.9412 25.184 28.8239C25.024 28.6959 24.816 28.6319 24.56 28.6319C24.3146 28.6319 24.1066 28.6959 23.936 28.8239C23.776 28.9412 23.6426 29.0959 23.536 29.2879C23.44 29.4799 23.3706 29.6986 23.328 29.9439C23.2853 30.1892 23.264 30.4292 23.264 30.6639ZM25.52 21.6079L19.328 33.1919H18.384L24.544 21.6079H25.52Z" fill="#1E2538"/>
<path d="M24.4629 13.7148L22.8506 12.1025M28.7617 18.0137L27.6865 16.9395M33.0605 22.3135L31.9863 21.2383M37.8975 27.1494L36.2852 25.5371" stroke="#1E2538" stroke-width="2" stroke-miterlimit="10" stroke-linecap="round"/>
</svg>
