<svg width="24" height="24" viewBox="0 0 24 24" fill="none" xmlns="http://www.w3.org/2000/svg">
<path d="M16.4219 3.30005C14.494 3.30005 12.8219 4.41597 11.999 6.04608C11.1762 4.41597 9.50412 3.30005 7.57622 3.30005C4.83339 3.30005 2.61011 5.55924 2.61011 8.3463C2.61011 13.8493 11.999 20.088 11.999 20.088C11.999 20.088 21.388 13.8493 21.388 8.3463C21.388 5.55924 19.1647 3.30005 16.4219 3.30005Z" fill="#00B0B9" fill-opacity="0.15"/>
<path fill-rule="evenodd" clip-rule="evenodd" d="M20.2992 4.70627C20.8657 5.2603 21.3187 5.91948 21.6328 6.64689C21.9586 7.40392 22.125 8.20783 22.1227 9.03517C22.1227 9.81564 21.9633 10.6289 21.6469 11.4563C21.3844 12.1477 21.0023 12.8649 20.5172 13.5891C19.7484 14.7352 18.6914 15.9305 17.3789 17.1422C15.2016 19.1508 13.05 20.536 12.9586 20.5945L12.4031 20.9508C12.157 21.1078 11.8406 21.1078 11.5945 20.9508L11.0391 20.5945C10.9477 20.5383 8.79375 19.1508 6.61875 17.1422C5.30625 15.9305 4.24922 14.7352 3.48047 13.5891C2.99531 12.8649 2.61563 12.1477 2.35078 11.4563C2.03438 10.6289 1.875 9.81564 1.875 9.03517C1.875 8.20783 2.04141 7.40392 2.36719 6.64689C2.6805 5.91901 3.13359 5.25968 3.70078 4.70627C4.27031 4.14845 4.93359 3.71017 5.66953 3.40549C6.43125 3.08908 7.2375 2.9297 8.06953 2.9297C9.225 2.9297 10.3523 3.24611 11.332 3.84377C11.5664 3.98674 11.7891 4.14377 12 4.31486C12.2109 4.14377 12.4336 3.98674 12.668 3.84377C13.6477 3.24611 14.775 2.9297 15.9305 2.9297C16.7541 2.92781 17.5699 3.08953 18.3305 3.40549C19.064 3.70898 19.7323 4.15058 20.2992 4.70627ZM12 19.0969C12.1618 19.3495 12.1623 19.3492 12.1624 19.3491L12.1638 19.3482L12.1687 19.3451L12.1874 19.3329C12.2037 19.3223 12.2277 19.3067 12.2589 19.2861C12.3212 19.245 12.412 19.1845 12.5274 19.1059C12.7581 18.9488 13.087 18.7194 13.4814 18.4296C14.2696 17.8503 15.3218 17.0275 16.3754 16.0548C17.4277 15.0832 18.4889 13.955 19.2891 12.764C20.0866 11.5768 20.6438 10.2992 20.6438 9.03516C20.6438 6.47545 18.5279 4.41094 15.9305 4.41094C14.2912 4.41094 12.8448 5.23219 12 6.48028C11.1552 5.23219 9.7088 4.41094 8.06953 4.41094C5.47214 4.41094 3.35625 6.47545 3.35625 9.03516C3.35625 10.2992 3.91337 11.5768 4.71094 12.764C5.51108 13.955 6.57233 15.0832 7.62461 16.0548C8.67815 17.0275 9.73042 17.8503 10.5186 18.4296C10.913 18.7194 11.2419 18.9488 11.4726 19.1059C11.588 19.1845 11.6788 19.245 11.7411 19.2861C11.7723 19.3067 11.7963 19.3223 11.8126 19.3329L11.8313 19.3451L11.8362 19.3482L11.838 19.3493L12 19.4532L12.1618 19.3495L12 19.0969ZM20.3438 9.03517C20.3438 9.03517 20.3438 9.03516 20.3438 9.03516C20.3438 8.73663 20.3129 8.44517 20.2541 8.16367C20.3129 8.44517 20.3438 8.73664 20.3438 9.03517ZM11.838 19.3493L12 19.0969C11.8382 19.3495 11.8381 19.3494 11.838 19.3493ZM8.06953 4.71095C5.93672 4.71095 4.15741 6.19316 3.74591 8.16367C4.1574 6.19315 5.93671 4.71094 8.06953 4.71094C9.65554 4.71094 11.0467 5.5304 11.8248 6.76027C11.8872 6.85896 11.9457 6.9603 12 7.06406C12.0543 6.9603 12.1128 6.85896 12.1752 6.76027C12.9533 5.5304 14.3445 4.71094 15.9305 4.71094C16.6981 4.71094 17.42 4.90296 18.0487 5.24064C17.42 4.90296 16.6981 4.71095 15.9305 4.71095C14.2172 4.71095 12.7312 5.6672 12 7.06408C11.2688 5.6672 9.78281 4.71095 8.06953 4.71095Z" fill="#00B0B9"/>
</svg>
