<svg width="24" height="24" viewBox="0 0 24 24" fill="none" xmlns="http://www.w3.org/2000/svg">
<path d="M19.5 18H4.50001C4.36874 17.9992 4.23997 17.964 4.12659 17.8978C4.0132 17.8317 3.91916 17.7369 3.85387 17.6231C3.78858 17.5092 3.75432 17.3801 3.75452 17.2489C3.75472 17.1176 3.78937 16.9887 3.85501 16.875C4.47282 15.8062 5.25001 13.8572 5.25001 10.5C5.25001 8.70979 5.96116 6.9929 7.22703 5.72703C8.4929 4.46116 10.2098 3.75 12 3.75C13.7902 3.75 15.5071 4.46116 16.773 5.72703C18.0388 6.9929 18.75 8.70979 18.75 10.5C18.75 13.8581 19.5281 15.8062 20.1469 16.875C20.2126 16.9888 20.2472 17.1179 20.2474 17.2493C20.2475 17.3808 20.2131 17.5099 20.1475 17.6239C20.082 17.7378 19.9877 17.8325 19.8741 17.8985C19.7604 17.9645 19.6314 17.9995 19.5 18Z" fill="#748BA0" fill-opacity="0.15"/>
<path d="M21 6.66552C20.8235 6.75695 20.6178 6.77453 20.4283 6.71441C20.2388 6.65428 20.0809 6.52138 19.9894 6.3449C19.2735 4.93067 18.1899 3.73537 16.8525 2.88458C16.7692 2.83202 16.697 2.76354 16.6401 2.68308C16.5832 2.60261 16.5427 2.51173 16.521 2.41563C16.4992 2.31952 16.4966 2.22006 16.5132 2.12294C16.5299 2.02582 16.5656 1.93293 16.6181 1.84958C16.6707 1.76624 16.7392 1.69406 16.8196 1.63717C16.9001 1.58029 16.991 1.53981 17.0871 1.51804C17.1832 1.49628 17.2826 1.49366 17.3798 1.51033C17.4769 1.527 17.5698 1.56264 17.6531 1.61521C19.2118 2.61321 20.4775 4.0073 21.3206 5.6549C21.4121 5.83145 21.4296 6.03707 21.3695 6.22658C21.3094 6.41609 21.1765 6.57397 21 6.66552ZM3.34782 6.7499C3.48522 6.74984 3.61996 6.71204 3.73735 6.64062C3.85473 6.56919 3.95024 6.4669 4.01344 6.3449C4.72932 4.93067 5.8129 3.73537 7.15032 2.88458C7.23366 2.83202 7.30584 2.76354 7.36273 2.68308C7.41961 2.60261 7.46009 2.51173 7.48186 2.41563C7.50362 2.31952 7.50624 2.22006 7.48957 2.12294C7.4729 2.02582 7.43726 1.93293 7.38469 1.84958C7.33212 1.76624 7.26365 1.69406 7.18318 1.63717C7.10272 1.58029 7.01184 1.53981 6.91573 1.51804C6.81962 1.49628 6.72017 1.49366 6.62305 1.51033C6.52592 1.527 6.43304 1.56264 6.34969 1.61521C4.79101 2.61321 3.52536 4.0073 2.68219 5.6549C2.62298 5.7692 2.59418 5.89681 2.59857 6.02547C2.60295 6.15412 2.64038 6.27948 2.70725 6.38947C2.77411 6.49947 2.86817 6.59041 2.98035 6.65353C3.09254 6.71666 3.21909 6.74984 3.34782 6.7499ZM20.7947 16.4943C20.9276 16.7221 20.998 16.981 20.9989 17.2447C20.9998 17.5085 20.9312 17.7678 20.7998 17.9966C20.6685 18.2254 20.4792 18.4155 20.251 18.5477C20.0228 18.68 19.7638 18.7497 19.5 18.7499H15.675C15.5029 19.5976 15.043 20.3598 14.3732 20.9072C13.7034 21.4546 12.865 21.7537 12 21.7537C11.135 21.7537 10.2966 21.4546 9.62681 20.9072C8.95705 20.3598 8.49714 19.5976 8.325 18.7499H4.5C4.2364 18.7494 3.97758 18.6794 3.74963 18.547C3.52168 18.4146 3.33265 18.2245 3.20156 17.9958C3.07048 17.7671 3.00199 17.5079 3.00297 17.2443C3.00396 16.9807 3.0744 16.722 3.20719 16.4943C4.05188 15.0365 4.5 12.9636 4.5 10.4999C4.5 8.51077 5.29018 6.60312 6.6967 5.1966C8.10322 3.79007 10.0109 2.9999 12 2.9999C13.9891 2.9999 15.8968 3.79007 17.3033 5.1966C18.7098 6.60312 19.5 8.51077 19.5 10.4999C19.5 12.9627 19.9481 15.0355 20.7947 16.4943ZM14.1206 18.7499H9.87938C10.0348 19.1881 10.3221 19.5674 10.7018 19.8357C11.0816 20.1039 11.5351 20.2479 12 20.2479C12.4649 20.2479 12.9185 20.1039 13.2982 19.8357C13.6779 19.5674 13.9652 19.1881 14.1206 18.7499ZM19.5 17.2499C18.5025 15.5371 18 13.2665 18 10.4999C18 8.9086 17.3679 7.38247 16.2426 6.25726C15.1174 5.13204 13.5913 4.4999 12 4.4999C10.4087 4.4999 8.88258 5.13204 7.75736 6.25726C6.63214 7.38247 6 8.9086 6 10.4999C6 13.2674 5.49563 15.538 4.5 17.2499H19.5Z" fill="#748BA0"/>
</svg>
