<svg width="32" height="32" viewBox="0 0 32 32" fill="none" xmlns="http://www.w3.org/2000/svg">
<circle cx="16" cy="16" r="16" fill="#FCC55E"/>
<path fill-rule="evenodd" clip-rule="evenodd" d="M15.0833 8.4375C11.4129 8.4375 8.4375 11.4129 8.4375 15.0833C8.4375 18.7537 11.4129 21.7292 15.0833 21.7292C18.7537 21.7292 21.7292 18.7537 21.7292 15.0833C21.7292 11.4129 18.7537 8.4375 15.0833 8.4375ZM7.0625 15.0833C7.0625 10.6535 10.6535 7.0625 15.0833 7.0625C19.5131 7.0625 23.1042 10.6535 23.1042 15.0833C23.1042 19.5131 19.5131 23.1042 15.0833 23.1042C10.6535 23.1042 7.0625 19.5131 7.0625 15.0833Z" fill="#1E2538"/>
<path fill-rule="evenodd" clip-rule="evenodd" d="M19.6142 19.6142C19.9722 19.2562 20.5526 19.2562 20.9106 19.6142L24.8981 23.6017C25.256 23.9597 25.256 24.5401 24.8981 24.8981C24.5401 25.256 23.9597 25.256 23.6017 24.8981L19.6142 20.9106C19.2562 20.5526 19.2562 19.9722 19.6142 19.6142Z" fill="#1E2538"/>
</svg>
