<svg width="33" height="32" viewBox="0 0 33 32" fill="none" xmlns="http://www.w3.org/2000/svg">
<path d="M24.523 9.22586C24.0548 8.75745 23.4989 8.38587 22.8871 8.13235C22.2752 7.87884 21.6194 7.74835 20.9571 7.74835C20.2949 7.74835 19.6391 7.87884 19.0272 8.13235C18.4154 8.38587 17.8595 8.75745 17.3913 9.22586L16.4196 10.1975L15.448 9.22586C14.5023 8.28014 13.2196 7.74884 11.8821 7.74884C10.5447 7.74884 9.26203 8.28014 8.31631 9.22586C7.37059 10.1716 6.83929 11.4542 6.83929 12.7917C6.83929 14.1291 7.37059 15.4118 8.31631 16.3575L9.28798 17.3292L16.4196 24.4609L23.5513 17.3292L24.523 16.3575C24.9914 15.8893 25.363 15.3334 25.6165 14.7216C25.87 14.1098 26.0005 13.454 26.0005 12.7917C26.0005 12.1294 25.87 11.4736 25.6165 10.8618C25.363 10.2499 24.9914 9.69405 24.523 9.22586V9.22586Z" stroke="#666E84" stroke-width="1.5" stroke-linecap="round" stroke-linejoin="round"/>
</svg>
