<svg width="32" height="33" viewBox="0 0 32 33" fill="none" xmlns="http://www.w3.org/2000/svg">
<circle cx="16" cy="16.4609" r="16" fill="#FCC55E"/>
<path d="M24.1033 9.68674C23.6351 9.21832 23.0792 8.84674 22.4674 8.59323C21.8556 8.33971 21.1998 8.20923 20.5375 8.20923C19.8752 8.20923 19.2194 8.33971 18.6076 8.59323C17.9958 8.84674 17.4399 9.21832 16.9717 9.68674L16 10.6584L15.0283 9.68674C14.0826 8.74102 12.7999 8.20972 11.4625 8.20972C10.1251 8.20972 8.84238 8.74102 7.89666 9.68674C6.95095 10.6325 6.41965 11.9151 6.41965 13.2526C6.41965 14.59 6.95095 15.8727 7.89666 16.8184L8.86833 17.7901L16 24.9217L23.1317 17.7901L24.1033 16.8184C24.5717 16.3502 24.9433 15.7943 25.1968 15.1825C25.4504 14.5706 25.5808 13.9148 25.5808 13.2526C25.5808 12.5903 25.4504 11.9345 25.1968 11.3227C24.9433 10.7108 24.5717 10.1549 24.1033 9.68674V9.68674Z" stroke="#1E2538" stroke-width="1.5" stroke-linecap="round" stroke-linejoin="round"/>
</svg>
