<svg width="30" height="30" viewBox="0 0 30 30" fill="none" xmlns="http://www.w3.org/2000/svg">
<circle cx="15" cy="15" r="15" fill="white"/>
<path fill-rule="evenodd" clip-rule="evenodd" d="M16.3213 10.0077C16.7319 9.83755 17.1719 9.75 17.6162 9.75C18.0606 9.75 18.5006 9.83755 18.9111 10.0077C19.3217 10.1778 19.6947 10.4271 20.0088 10.7414C20.323 11.0555 20.5723 11.4284 20.7423 11.8389C20.9124 12.2494 21 12.6894 21 13.1338C21 13.5781 20.9124 14.0181 20.7423 14.4287C20.5723 14.8392 20.323 15.2121 20.0087 15.5262C20.0087 15.5263 20.0087 15.5263 20.0086 15.5263L15.3362 20.1987C15.247 20.2879 15.126 20.3381 14.9999 20.3381C14.8737 20.3381 14.7527 20.2879 14.6635 20.1987L9.991 15.5262C9.35647 14.8917 9 14.0311 9 13.1338C9 12.2364 9.35647 11.3758 9.991 10.7413C10.6255 10.1068 11.4861 9.75028 12.3835 9.75028C13.2808 9.75028 14.1414 10.1068 14.776 10.7413L14.9999 10.9652L15.2237 10.7414C15.5378 10.4271 15.9108 10.1778 16.3213 10.0077ZM17.6162 10.7014C17.2969 10.7014 16.9806 10.7643 16.6855 10.8866C16.3905 11.0089 16.1224 11.1881 15.8966 11.414L15.8965 11.414L15.3362 11.9743C15.247 12.0635 15.126 12.1136 14.9999 12.1136C14.8737 12.1136 14.7527 12.0635 14.6635 11.9743L14.1032 11.414C13.6471 10.9579 13.0285 10.7017 12.3835 10.7017C11.7385 10.7017 11.1198 10.9579 10.6637 11.414C10.2076 11.8701 9.95141 12.4887 9.95141 13.1338C9.95141 13.7788 10.2076 14.3974 10.6637 14.8535L14.9999 19.1896L19.336 14.8535L19.3361 14.8534C19.5619 14.6276 19.7411 14.3595 19.8634 14.0645C19.9857 13.7694 20.0486 13.4531 20.0486 13.1338C20.0486 12.8144 19.9857 12.4981 19.8634 12.203C19.7411 11.908 19.5619 11.6399 19.3361 11.4141L19.3359 11.414C19.1101 11.1881 18.842 11.0089 18.547 10.8866C18.2519 10.7643 17.9356 10.7014 17.6162 10.7014Z" fill="#1E2538"/>
</svg>
