<svg width="50" height="50" viewBox="0 0 50 50" fill="none" xmlns="http://www.w3.org/2000/svg">
<rect x="0.5" y="0.5" width="49" height="49" rx="24.5" stroke="#C8CDD9"/>
<path d="M32.3667 18.8417C31.941 18.4158 31.4357 18.078 30.8795 17.8476C30.3233 17.6171 29.7271 17.4985 29.125 17.4985C28.5229 17.4985 27.9268 17.6171 27.3705 17.8476C26.8143 18.078 26.309 18.4158 25.8833 18.8417L25 19.725L24.1167 18.8417C23.2569 17.9819 22.0909 17.4989 20.875 17.4989C19.6591 17.4989 18.4931 17.9819 17.6333 18.8417C16.7736 19.7014 16.2906 20.8675 16.2906 22.0833C16.2906 23.2992 16.7736 24.4653 17.6333 25.325L18.5167 26.2083L25 32.6917L31.4833 26.2083L32.3667 25.325C32.7925 24.8994 33.1303 24.394 33.3608 23.8378C33.5912 23.2816 33.7099 22.6854 33.7099 22.0833C33.7099 21.4813 33.5912 20.8851 33.3608 20.3289C33.1303 19.7726 32.7925 19.2673 32.3667 18.8417V18.8417Z" stroke="#C8CDD9" stroke-width="1.2" stroke-linecap="round" stroke-linejoin="round"/>
</svg>
