<svg width="30" height="30" viewBox="0 0 30 30" fill="none" xmlns="http://www.w3.org/2000/svg">
<circle cx="15" cy="15" r="15" fill="white"/>
<path d="M19.5672 11.1229C19.3033 10.8589 18.99 10.6494 18.6451 10.5065C18.3003 10.3636 17.9307 10.2901 17.5574 10.2901C17.1841 10.2901 16.8145 10.3636 16.4696 10.5065C16.1247 10.6494 15.8114 10.8589 15.5475 11.1229L14.9999 11.6705L14.4522 11.1229C13.9191 10.5898 13.1962 10.2904 12.4423 10.2904C11.6885 10.2904 10.9655 10.5898 10.4325 11.1229C9.89946 11.6559 9.6 12.3789 9.6 13.1327C9.6 13.8865 9.89946 14.6095 10.4325 15.1426L10.9802 15.6902L14.9999 19.7099L19.0196 15.6902L19.5672 15.1426C19.8312 14.8787 20.0407 14.5653 20.1836 14.2205C20.3265 13.8756 20.4 13.506 20.4 13.1327C20.4 12.7594 20.3265 12.3898 20.1836 12.0449C20.0407 11.7001 19.8312 11.3868 19.5672 11.1229V11.1229Z" fill="#1E2538" stroke="#1E2538" stroke-width="1.08" stroke-linecap="round" stroke-linejoin="round"/>
</svg>
