<svg width="31" height="30" viewBox="0 0 31 30" fill="none" xmlns="http://www.w3.org/2000/svg">
<path d="M16.3788 15.7065V19H14.9561V15.7065H11.6528V14.2935H14.9561V11H16.3788V14.2935H19.6528V15.7065H16.3788Z" fill="white"/>
<g clip-path="url(#clip0_5_234)">
<path d="M20.8246 10.5491C20.5314 10.2557 20.1832 10.023 19.8 9.86427C19.4169 9.7055 19.0062 9.62378 18.5914 9.62378C18.1766 9.62378 17.7659 9.7055 17.3828 9.86427C16.9996 10.023 16.6515 10.2557 16.3582 10.5491L15.7497 11.1576L15.1412 10.5491C14.5489 9.95682 13.7456 9.62409 12.908 9.62409C12.0704 9.62409 11.2672 9.95682 10.6749 10.5491C10.0826 11.1414 9.74988 11.9447 9.74988 12.7823C9.74988 13.6198 10.0826 14.4231 10.6749 15.0154L11.2834 15.6239L15.7497 20.0902L20.216 15.6239L20.8246 15.0154C21.1179 14.7222 21.3506 14.3741 21.5094 13.9909C21.6682 13.6077 21.7499 13.197 21.7499 12.7823C21.7499 12.3675 21.6682 11.9568 21.5094 11.5736C21.3506 11.1904 21.1179 10.8423 20.8246 10.5491V10.5491Z" fill="#1E2538" stroke="#1E2538" stroke-width="1.2" stroke-linecap="round" stroke-linejoin="round"/>
</g>
<defs>
<clipPath id="clip0_5_234">
<rect width="14" height="13" fill="white" transform="translate(8.65283 8.5)"/>
</clipPath>
</defs>
</svg>
