<svg width="133" height="93" viewBox="0 0 133 93" fill="none" xmlns="http://www.w3.org/2000/svg">
<path d="M0.992939 72.12H4.77294C5.43894 72.12 6.05994 72.21 6.63594 72.39C7.21194 72.57 7.67694 72.87 8.03094 73.29C8.39094 73.71 8.57094 74.283 8.57094 75.009C8.57094 75.495 8.47794 75.93 8.29194 76.314C8.10594 76.698 7.86894 77.013 7.58094 77.259C7.29294 77.499 6.98994 77.652 6.67194 77.718C6.94194 77.748 7.21794 77.829 7.49994 77.961C7.78194 78.093 8.04294 78.276 8.28294 78.51C8.52294 78.744 8.71494 79.038 8.85894 79.392C9.00894 79.746 9.08394 80.16 9.08394 80.634C9.08394 81.294 8.93994 81.879 8.65194 82.389C8.36994 82.893 7.94994 83.289 7.39194 83.577C6.83994 83.859 6.15294 84 5.33094 84H0.992939V72.12ZM3.24294 82.182H4.87194C5.32794 82.182 5.69094 82.107 5.96094 81.957C6.23694 81.807 6.43494 81.603 6.55494 81.345C6.67494 81.087 6.73494 80.793 6.73494 80.463C6.73494 79.935 6.56694 79.53 6.23094 79.248C5.89494 78.966 5.41794 78.825 4.79994 78.825H3.24294V82.182ZM3.24294 77.043H4.67394C5.04594 77.043 5.35194 76.971 5.59194 76.827C5.83794 76.677 6.02394 76.479 6.14994 76.233C6.27594 75.981 6.33894 75.708 6.33894 75.414C6.33894 74.85 6.17394 74.463 5.84394 74.253C5.51994 74.043 5.07894 73.938 4.52094 73.938H3.24294V77.043ZM16.1998 72.12H20.7718C21.4438 72.12 22.0468 72.261 22.5808 72.543C23.1148 72.819 23.5378 73.224 23.8498 73.758C24.1678 74.286 24.3268 74.925 24.3268 75.675C24.3268 76.419 24.1888 77.031 23.9128 77.511C23.6368 77.985 23.3038 78.342 22.9138 78.582C22.5298 78.822 22.1728 78.96 21.8428 78.996L24.7588 84H22.2208L19.5838 79.167H18.4408V84H16.1998V72.12ZM18.4408 77.583H19.9708C20.5408 77.583 21.0238 77.442 21.4198 77.16C21.8218 76.878 22.0228 76.404 22.0228 75.738C22.0228 75.072 21.8248 74.604 21.4288 74.334C21.0328 74.058 20.5528 73.92 19.9888 73.92H18.4408V77.583ZM34.9162 72.12H37.1752L41.7472 84H39.3532L38.4262 81.435H33.6742L32.7292 84H30.3262L34.9162 72.12ZM34.4122 79.446H37.6882L36.0592 74.838H36.0322L34.4122 79.446ZM48.3431 72.12H50.5931V84H48.3431V72.12ZM60.3461 74.199L60.4991 74.226V84H58.2581V72.12H61.3541L66.6821 81.876L66.5291 81.912V72.12H68.7701V84H65.6561L60.3461 74.199ZM78.4375 74.199L78.5905 74.226V84H76.3495V72.12H79.4455L84.7735 81.876L84.6205 81.912V72.12H86.8615V84H83.7475L78.4375 74.199ZM94.4409 72.12H101.812V74.109H96.6729V77.079H101.74V79.005H96.6729V82.011H101.812V84H94.4409V72.12ZM113.489 71.904C114.203 71.904 114.824 71.985 115.352 72.147C115.886 72.303 116.309 72.471 116.621 72.651C116.939 72.831 117.131 72.948 117.197 73.002L116.099 74.829C116.003 74.751 115.838 74.643 115.604 74.505C115.376 74.361 115.1 74.235 114.776 74.127C114.452 74.013 114.101 73.956 113.723 73.956C113.177 73.956 112.739 74.061 112.409 74.271C112.085 74.475 111.923 74.772 111.923 75.162C111.923 75.426 112.01 75.663 112.184 75.873C112.358 76.077 112.613 76.269 112.949 76.449C113.291 76.629 113.708 76.818 114.2 77.016C114.632 77.184 115.043 77.379 115.433 77.601C115.829 77.823 116.18 78.084 116.486 78.384C116.798 78.684 117.044 79.032 117.224 79.428C117.41 79.824 117.503 80.277 117.503 80.787C117.503 81.357 117.386 81.855 117.152 82.281C116.924 82.707 116.606 83.064 116.198 83.352C115.796 83.64 115.334 83.856 114.812 84C114.29 84.144 113.741 84.216 113.165 84.216C112.385 84.216 111.683 84.126 111.059 83.946C110.441 83.76 109.94 83.562 109.556 83.352C109.172 83.142 108.947 83.007 108.881 82.947L110.033 81.048C110.105 81.102 110.24 81.189 110.438 81.309C110.642 81.429 110.888 81.552 111.176 81.678C111.47 81.804 111.788 81.912 112.13 82.002C112.478 82.092 112.832 82.137 113.192 82.137C113.84 82.137 114.329 82.002 114.659 81.732C114.989 81.462 115.154 81.111 115.154 80.679C115.154 80.355 115.049 80.07 114.839 79.824C114.629 79.578 114.332 79.353 113.948 79.149C113.57 78.939 113.117 78.726 112.589 78.51C112.061 78.288 111.569 78.03 111.113 77.736C110.663 77.436 110.3 77.07 110.024 76.638C109.748 76.2 109.61 75.663 109.61 75.027C109.61 74.397 109.787 73.848 110.141 73.38C110.501 72.912 110.975 72.549 111.563 72.291C112.157 72.033 112.799 71.904 113.489 71.904ZM126.969 74.109H123.99V72.12H132.189V74.109H129.219V84H126.969V74.109Z" fill="#1E2538"/>
<g clip-path="url(#clip0_1012_2517)">
<path d="M27.0184 31.7481C30.1866 26.2639 25.1346 22.6221 24.9634 22.4507C24.8349 22.5793 23.1224 24.4216 22.9083 26.9066C20.7248 24.5501 17.3425 24.7215 17.1285 24.7644C17.1285 25.0214 16.7432 30.934 22.5658 32.1765C20.2111 34.7472 15.3731 39.2031 9.03671 41.0026C7.79511 41.3453 5.18348 41.8166 3.64219 41.431C2.27216 41.0883 3.51375 46.8295 3.51375 46.8295C3.51375 46.8295 19.312 44.473 27.8747 45.8441C32.3701 46.5724 39.0919 49.9143 39.0919 49.9143C37.5078 43.916 35.2386 38.689 32.8839 35.1757C30.786 33.8475 28.6453 32.6478 27.0184 31.7481Z" fill="#1E2538"/>
<path d="M26.0765 39.3316C26.0765 41.5596 24.2784 43.4019 22.0092 43.4019C19.7829 43.4019 17.942 41.6024 17.942 39.3316C17.942 37.1037 19.7401 35.2614 22.0092 35.2614C24.2784 35.3042 26.0765 37.1037 26.0765 39.3316Z" fill="#FCC55E"/>
<path d="M120.01 34.9186C119.539 34.4901 118.982 34.0188 118.34 33.5047C114.401 40.1457 108.75 46.4439 105.325 49.9571C105.325 49.9571 114.786 42.6307 120.01 34.9186Z" fill="url(#paint0_linear_1012_2517)"/>
<path d="M88.7557 2.52786C88.3703 9.8115 86.3581 26.4353 76.6394 49.9572C76.6394 49.9572 92.8229 19.9657 92.7801 4.19881C91.4529 3.55614 90.1257 2.99916 88.7557 2.52786Z" fill="url(#paint1_linear_1012_2517)"/>
<path d="M51.5506 49.9572H54.8473C57.5445 24.8072 42.6882 12.0823 42.6882 12.0823C46.1989 18.8089 51.9359 32.5621 51.5506 49.9572Z" fill="url(#paint2_linear_1012_2517)"/>
<path opacity="0.42" d="M24.4924 37.9177C24.3212 37.6607 23.4649 37.0608 23.2508 36.8895C21.367 36.9323 20.2111 37.1894 19.0123 38.9032C18.4129 40.874 19.6545 43.102 21.5811 43.4019C24.4924 43.7875 26.5903 40.5313 24.4924 37.9177Z" fill="url(#paint3_linear_1012_2517)"/>
<path d="M24.8777 39.3316C24.8777 40.9169 23.5933 42.1594 22.052 42.1594C20.4679 42.1594 19.2263 40.874 19.2263 39.3316C19.2263 37.7463 20.5108 36.5038 22.052 36.5038C23.5933 36.5038 24.8777 37.7892 24.8777 39.3316Z" fill="white"/>
<path d="M24.6637 39.1174C24.6637 40.7027 23.3793 41.9452 21.838 41.9452C20.2539 41.9452 19.0123 40.6598 19.0123 39.1174C19.0123 37.5321 20.2967 36.2896 21.838 36.2896C23.3793 36.2896 24.6637 37.575 24.6637 39.1174Z" fill="url(#paint4_linear_1012_2517)"/>
<path d="M22.3518 38.7746C22.3518 39.5458 21.7096 40.1885 20.9389 40.1885C20.1683 40.1885 19.5261 39.5458 19.5261 38.7746C19.5261 38.0034 20.1683 37.3607 20.9389 37.3607C21.7096 37.3607 22.3518 38.0034 22.3518 38.7746Z" fill="black"/>
<path d="M22.0093 38.389C22.0093 38.6461 21.838 38.8603 21.5811 38.8603C21.3671 38.8603 21.153 38.6461 21.153 38.389C21.153 38.1319 21.3242 37.9177 21.5811 37.9177C21.838 37.9177 22.0093 38.1319 22.0093 38.389Z" fill="white"/>
<path d="M88.7557 2.52786C88.3703 9.8115 86.3581 26.4353 76.6394 49.9572H84.2174C88.5844 41.5596 99.2022 20.0943 99.9728 8.31192C96.5477 5.91261 92.7801 3.94174 88.7557 2.52786Z" fill="url(#paint5_linear_1012_2517)"/>
<path d="M118.34 33.5047C114.401 40.1457 108.75 46.4439 105.325 49.9571H114.872C116.071 47.2151 119.71 39.4601 122.022 36.8894C119.838 34.9614 121.465 36.0325 118.34 33.5047Z" fill="url(#paint6_linear_1012_2517)"/>
<path d="M114.658 24.8072C113.202 28.7918 110.805 32.9906 108.15 36.8895C107.551 45.6298 105.367 49.9143 105.367 49.9143C108.065 47.1294 112.175 42.6307 115.685 37.575C115.557 30.5913 114.658 24.8072 114.658 24.8072Z" fill="#1E2538"/>
<path d="M42.731 12.0823C46.2417 18.8089 51.9788 32.5621 51.5506 49.9572H58.8717C60.199 36.3753 60.2846 15.0386 55.3182 3.85605C50.6943 5.9126 46.4558 8.69752 42.731 12.0823Z" fill="url(#paint7_linear_1012_2517)"/>
<path d="M66.4926 22.1508C61.7831 10.7541 55.361 3.85605 55.361 3.85605C58.4864 10.9683 59.5996 22.108 59.6424 32.8192C63.5813 42.0309 63.6241 49.9572 63.6241 49.9572C66.1501 39.3316 66.7495 29.9486 66.4926 22.1508Z" fill="#1E2538"/>
<path d="M29.7585 31.5767C33.0552 34.2331 36.8228 41.3025 39.0919 49.9571H46.7983C45.5995 42.7592 42.6026 30.3342 35.4955 20.3513C33.1408 23.7789 31.1714 27.5493 29.7585 31.5767Z" fill="url(#paint8_linear_1012_2517)"/>
<path d="M50.0522 33.0334C43.2448 24.7215 35.4955 20.3513 35.4955 20.3513C39.6913 26.2639 42.4742 33.0763 44.2723 39.1174C49.624 44.2159 51.5506 49.9571 51.5506 49.9571C51.6791 43.8303 51.0797 38.132 50.0522 33.0334Z" fill="#1E2538"/>
<path d="M123.734 46.4439L120.309 43.4019L129.429 38.4747L123.734 46.4439Z" fill="url(#paint9_linear_1012_2517)"/>
<path d="M122.022 36.8895C121.251 37.7035 120.395 39.1174 119.453 40.7027L120.266 43.4447L123.306 41.8166L122.022 36.8895Z" fill="#1E2538"/>
<path d="M67.9054 50C67.7342 45.4584 64.5232 41.8595 60.6271 41.8595C56.6883 41.8595 53.5201 45.4584 53.3488 50H67.9054Z" fill="#1E2538"/>
<path d="M79.251 0.342759C77.4529 0.128535 75.5691 0 73.7281 0C70.0889 0 66.5782 0.428449 63.1959 1.2425C65.4651 8.74036 69.2327 26.3925 63.6241 49.9572H71.1593C72.9146 44.0017 81.2205 14.6958 79.251 0.342759Z" fill="url(#paint10_linear_1012_2517)"/>
<path d="M84.3458 27.5921C83.0186 11.7395 79.251 0.342773 79.251 0.342773C80.3642 8.39762 78.2235 21.1654 75.8259 31.8338C77.0247 41.7309 76.6394 49.9572 76.6394 49.9572C80.1073 41.6024 82.5905 34.1046 84.3458 27.5921Z" fill="#1E2538"/>
<path d="M101.514 27.4636C102.242 14.7387 100.016 8.31192 100.016 8.31192C99.5447 15.4242 95.4774 26.0926 91.3673 35.2614C90.8535 39.5459 90.0829 44.3873 89.0125 49.7858H89.0982C94.1074 42.9306 98.3459 34.6187 101.514 27.4636Z" fill="#1E2538"/>
<path d="M96.034 49.9572C95.8627 45.6298 92.3948 42.1594 88.1563 42.1594C83.9177 42.1594 80.4926 45.6298 80.2786 49.9572H96.034Z" fill="#1E2538"/>
<path d="M106.78 14.096C104.297 21.1225 97.875 37.8749 88.9697 49.9572H97.9178C102.713 44.5159 111.276 34.0617 114.658 24.8072C112.517 20.8655 109.863 17.2665 106.78 14.096Z" fill="url(#paint11_linear_1012_2517)"/>
</g>
<defs>
<linearGradient id="paint0_linear_1012_2517" x1="107.08" y1="50.6968" x2="121.533" y2="29.3345" gradientUnits="userSpaceOnUse">
<stop offset="0.1212" stop-color="#0006C0"/>
<stop offset="0.8335" stop-color="white"/>
</linearGradient>
<linearGradient id="paint1_linear_1012_2517" x1="73.6401" y1="45.2668" x2="92.1486" y2="6.81658" gradientUnits="userSpaceOnUse">
<stop offset="0.1212" stop-color="#0006C0"/>
<stop offset="0.9927" stop-color="white"/>
</linearGradient>
<linearGradient id="paint2_linear_1012_2517" x1="47.7419" y1="52.9556" x2="49.8222" y2="11.1485" gradientUnits="userSpaceOnUse">
<stop offset="0.1212" stop-color="#0006C0"/>
<stop offset="0.9927" stop-color="white"/>
</linearGradient>
<linearGradient id="paint3_linear_1012_2517" x1="23.9565" y1="36.4884" x2="20.4778" y2="43.1673" gradientUnits="userSpaceOnUse">
<stop offset="0.0909091" stop-color="#00FFFF"/>
<stop offset="0.098692" stop-color="#02FCFB"/>
<stop offset="0.2469" stop-color="#23C4BA"/>
<stop offset="0.3927" stop-color="#409381"/>
<stop offset="0.5324" stop-color="#576C53"/>
<stop offset="0.665" stop-color="#694D2F"/>
<stop offset="0.7885" stop-color="#763715"/>
<stop offset="0.8997" stop-color="#7E2A05"/>
<stop offset="0.9879" stop-color="#812500"/>
</linearGradient>
<linearGradient id="paint4_linear_1012_2517" x1="18.985" y1="39.1294" x2="24.6654" y2="39.1294" gradientUnits="userSpaceOnUse">
<stop stop-color="#B3B3B3"/>
<stop offset="0.9212" stop-color="white"/>
</linearGradient>
<linearGradient id="paint5_linear_1012_2517" x1="21.4962" y1="13.3495" x2="135.389" y2="37.3095" gradientUnits="userSpaceOnUse">
<stop stop-color="#812500"/>
<stop offset="0.1576" stop-color="#B30056"/>
<stop offset="0.297" stop-color="#FF5945"/>
<stop offset="0.4061" stop-color="#FFBD2D"/>
<stop offset="0.5333" stop-color="#F5FF43"/>
<stop offset="0.6182" stop-color="#82E82D"/>
<stop offset="0.7333" stop-color="#00C79F"/>
<stop offset="0.8303" stop-color="#00CCEC"/>
<stop offset="0.9576" stop-color="#69DBFF"/>
</linearGradient>
<linearGradient id="paint6_linear_1012_2517" x1="19.6148" y1="22.2975" x2="133.506" y2="46.2571" gradientUnits="userSpaceOnUse">
<stop stop-color="#812500"/>
<stop offset="0.1576" stop-color="#B30056"/>
<stop offset="0.297" stop-color="#FF5945"/>
<stop offset="0.4061" stop-color="#FFBD2D"/>
<stop offset="0.5333" stop-color="#F5FF43"/>
<stop offset="0.6182" stop-color="#82E82D"/>
<stop offset="0.7333" stop-color="#00C79F"/>
<stop offset="0.8303" stop-color="#00CCEC"/>
<stop offset="0.9576" stop-color="#69DBFF"/>
</linearGradient>
<linearGradient id="paint7_linear_1012_2517" x1="20.1228" y1="19.8815" x2="134.014" y2="43.8413" gradientUnits="userSpaceOnUse">
<stop stop-color="#812500"/>
<stop offset="0.1576" stop-color="#B30056"/>
<stop offset="0.297" stop-color="#FF5945"/>
<stop offset="0.4061" stop-color="#FFBD2D"/>
<stop offset="0.5333" stop-color="#F5FF43"/>
<stop offset="0.6182" stop-color="#82E82D"/>
<stop offset="0.7333" stop-color="#00C79F"/>
<stop offset="0.8303" stop-color="#00CCEC"/>
<stop offset="0.9576" stop-color="#69DBFF"/>
</linearGradient>
<linearGradient id="paint8_linear_1012_2517" x1="17.7756" y1="31.0397" x2="131.666" y2="54.9992" gradientUnits="userSpaceOnUse">
<stop stop-color="#812500"/>
<stop offset="0.1576" stop-color="#B30056"/>
<stop offset="0.297" stop-color="#FF5945"/>
<stop offset="0.4061" stop-color="#FFBD2D"/>
<stop offset="0.5333" stop-color="#F5FF43"/>
<stop offset="0.6182" stop-color="#82E82D"/>
<stop offset="0.7333" stop-color="#00C79F"/>
<stop offset="0.8303" stop-color="#00CCEC"/>
<stop offset="0.9576" stop-color="#69DBFF"/>
</linearGradient>
<linearGradient id="paint9_linear_1012_2517" x1="20.0952" y1="20.0055" x2="133.988" y2="43.9656" gradientUnits="userSpaceOnUse">
<stop stop-color="#812500"/>
<stop offset="0.1576" stop-color="#B30056"/>
<stop offset="0.297" stop-color="#FF5945"/>
<stop offset="0.4061" stop-color="#FFBD2D"/>
<stop offset="0.5333" stop-color="#F5FF43"/>
<stop offset="0.6182" stop-color="#82E82D"/>
<stop offset="0.7333" stop-color="#00C79F"/>
<stop offset="0.8303" stop-color="#00CCEC"/>
<stop offset="0.9576" stop-color="#69DBFF"/>
</linearGradient>
<linearGradient id="paint10_linear_1012_2517" x1="21.2404" y1="14.5671" x2="135.132" y2="38.527" gradientUnits="userSpaceOnUse">
<stop stop-color="#812500"/>
<stop offset="0.1576" stop-color="#B30056"/>
<stop offset="0.297" stop-color="#FF5945"/>
<stop offset="0.4061" stop-color="#FFBD2D"/>
<stop offset="0.5333" stop-color="#F5FF43"/>
<stop offset="0.6182" stop-color="#82E82D"/>
<stop offset="0.7333" stop-color="#00C79F"/>
<stop offset="0.8303" stop-color="#00CCEC"/>
<stop offset="0.9576" stop-color="#69DBFF"/>
</linearGradient>
<linearGradient id="paint11_linear_1012_2517" x1="20.9796" y1="15.8136" x2="134.869" y2="39.773" gradientUnits="userSpaceOnUse">
<stop stop-color="#812500"/>
<stop offset="0.1576" stop-color="#B30056"/>
<stop offset="0.297" stop-color="#FF5945"/>
<stop offset="0.4061" stop-color="#FFBD2D"/>
<stop offset="0.5333" stop-color="#F5FF43"/>
<stop offset="0.6182" stop-color="#82E82D"/>
<stop offset="0.7333" stop-color="#00C79F"/>
<stop offset="0.8303" stop-color="#00CCEC"/>
<stop offset="0.9576" stop-color="#69DBFF"/>
</linearGradient>
<clipPath id="clip0_1012_2517">
<rect width="126.429" height="50" fill="white" transform="translate(3)"/>
</clipPath>
</defs>
</svg>
