<svg width="81" height="25" viewBox="0 0 81 25" fill="none" xmlns="http://www.w3.org/2000/svg">
<path d="M6.51349 15.34C7.16949 15.34 7.73749 15.2493 8.21749 15.068C8.70283 14.8867 9.04683 14.7107 9.24949 14.54L9.84949 15.716C9.60949 15.9293 9.19083 16.1453 8.59349 16.364C8.00149 16.5827 7.28949 16.692 6.45749 16.692C5.67883 16.692 4.95616 16.5533 4.28949 16.276C3.62283 15.9987 3.03883 15.612 2.53749 15.116C2.04149 14.62 1.65216 14.0413 1.36949 13.38C1.09216 12.7187 0.953493 12.004 0.953493 11.236C0.953493 10.468 1.09216 9.75067 1.36949 9.084C1.64683 8.41733 2.03349 7.836 2.52949 7.34C3.03083 6.83867 3.61483 6.44933 4.28149 6.172C4.95349 5.88933 5.67883 5.748 6.45749 5.748C7.28949 5.748 8.00149 5.85733 8.59349 6.076C9.19083 6.29467 9.60949 6.51067 9.84949 6.724L9.24949 7.9C9.04683 7.724 8.70283 7.548 8.21749 7.372C7.73749 7.19067 7.16949 7.1 6.51349 7.1C5.91616 7.1 5.36949 7.20133 4.87349 7.404C4.37749 7.60667 3.94549 7.89467 3.57749 8.268C3.21483 8.636 2.93216 9.07067 2.72949 9.572C2.53216 10.0733 2.43349 10.62 2.43349 11.212C2.43349 11.8093 2.53216 12.3613 2.72949 12.868C2.93216 13.3693 3.21483 13.8067 3.57749 14.18C3.94549 14.548 4.37749 14.8333 4.87349 15.036C5.36949 15.2387 5.91616 15.34 6.51349 15.34ZM16.7349 16.5V15.22C16.6922 15.3533 16.5669 15.5373 16.3589 15.772C16.1562 16.0067 15.8762 16.22 15.5189 16.412C15.1669 16.5987 14.7509 16.692 14.2709 16.692C13.6629 16.692 13.1109 16.548 12.6149 16.26C12.1242 15.972 11.7322 15.5693 11.4389 15.052C11.1509 14.5293 11.0069 13.9187 11.0069 13.22C11.0069 12.5213 11.1509 11.9133 11.4389 11.396C11.7322 10.8733 12.1242 10.468 12.6149 10.18C13.1109 9.88667 13.6629 9.74 14.2709 9.74C14.7455 9.74 15.1562 9.82533 15.5029 9.996C15.8549 10.1667 16.1349 10.364 16.3429 10.588C16.5562 10.812 16.6815 11.004 16.7189 11.164V9.932H18.0949V16.5H16.7349ZM12.3829 13.22C12.3829 13.6947 12.4869 14.1053 12.6949 14.452C12.9029 14.7987 13.1722 15.068 13.5029 15.26C13.8389 15.4467 14.1962 15.54 14.5749 15.54C14.9802 15.54 15.3429 15.444 15.6629 15.252C15.9829 15.06 16.2362 14.7907 16.4229 14.444C16.6095 14.092 16.7029 13.684 16.7029 13.22C16.7029 12.756 16.6095 12.3507 16.4229 12.004C16.2362 11.652 15.9829 11.38 15.6629 11.188C15.3429 10.9907 14.9802 10.892 14.5749 10.892C14.1962 10.892 13.8389 10.988 13.5029 11.18C13.1722 11.372 12.9029 11.6413 12.6949 11.988C12.4869 12.3347 12.3829 12.7453 12.3829 13.22ZM23.6269 9.74C24.0589 9.74 24.4775 9.83067 24.8829 10.012C25.2935 10.1933 25.6295 10.4813 25.8909 10.876C26.1575 11.2653 26.2909 11.7747 26.2909 12.404V16.5H24.8829V12.676C24.8829 12.0253 24.7309 11.5533 24.4269 11.26C24.1229 10.9613 23.7309 10.812 23.2509 10.812C22.9362 10.812 22.6322 10.9027 22.3389 11.084C22.0509 11.26 21.8135 11.5053 21.6269 11.82C21.4402 12.1293 21.3469 12.4813 21.3469 12.876V16.5H19.9549V9.932H21.3469V11.1C21.3949 10.9187 21.5255 10.7213 21.7389 10.508C21.9522 10.2947 22.2242 10.1133 22.5549 9.964C22.8855 9.81467 23.2429 9.74 23.6269 9.74ZM31.2071 15.54C31.6231 15.54 31.9591 15.4733 32.2151 15.34C32.4711 15.2067 32.6311 15.1107 32.6951 15.052L33.3751 16.052C33.3218 16.1 33.1938 16.1773 32.9911 16.284C32.7938 16.3853 32.5378 16.4787 32.2231 16.564C31.9138 16.6493 31.5618 16.692 31.1671 16.692C30.5645 16.692 30.0045 16.5587 29.4871 16.292C28.9698 16.02 28.5511 15.6253 28.2311 15.108C27.9165 14.5907 27.7591 13.9587 27.7591 13.212C27.7591 12.46 27.9165 11.828 28.2311 11.316C28.5511 10.7987 28.9698 10.4067 29.4871 10.14C30.0045 9.87333 30.5645 9.74 31.1671 9.74C31.5565 9.74 31.9031 9.788 32.2071 9.884C32.5111 9.97467 32.7618 10.076 32.9591 10.188C33.1565 10.3 33.2871 10.3853 33.3511 10.444L32.6631 11.444C32.6205 11.4013 32.5378 11.3373 32.4151 11.252C32.2978 11.1613 32.1378 11.0787 31.9351 11.004C31.7325 10.9293 31.4898 10.892 31.2071 10.892C30.8658 10.892 30.5325 10.9853 30.2071 11.172C29.8871 11.3533 29.6231 11.6173 29.4151 11.964C29.2071 12.3107 29.1031 12.7267 29.1031 13.212C29.1031 13.6973 29.2071 14.116 29.4151 14.468C29.6231 14.8147 29.8871 15.0813 30.2071 15.268C30.5325 15.4493 30.8658 15.54 31.2071 15.54ZM35.6237 13.5C35.6291 13.8947 35.7144 14.2547 35.8797 14.58C36.0451 14.9053 36.2904 15.164 36.6157 15.356C36.9464 15.548 37.3517 15.644 37.8317 15.644C38.2371 15.644 38.5811 15.5853 38.8637 15.468C39.1517 15.3453 39.3864 15.2013 39.5677 15.036C39.7491 14.8653 39.8797 14.7133 39.9597 14.58L40.6397 15.42C40.4637 15.676 40.2477 15.9 39.9917 16.092C39.7411 16.284 39.4344 16.4307 39.0717 16.532C38.7091 16.6387 38.2664 16.692 37.7437 16.692C37.0397 16.692 36.4291 16.5427 35.9117 16.244C35.3997 15.94 35.0051 15.5213 34.7277 14.988C34.4504 14.4493 34.3117 13.8333 34.3117 13.14C34.3117 12.5 34.4424 11.924 34.7037 11.412C34.9651 10.8947 35.3437 10.4867 35.8397 10.188C36.3411 9.88933 36.9437 9.74 37.6477 9.74C38.2931 9.74 38.8531 9.876 39.3277 10.148C39.8077 10.4147 40.1784 10.7933 40.4397 11.284C40.7064 11.7747 40.8397 12.3613 40.8397 13.044C40.8397 13.0867 40.8371 13.164 40.8317 13.276C40.8264 13.3827 40.8211 13.4573 40.8157 13.5H35.6237ZM39.5117 12.452C39.5064 12.2333 39.4424 11.9933 39.3197 11.732C39.2024 11.4707 39.0104 11.2467 38.7437 11.06C38.4771 10.8733 38.1171 10.78 37.6637 10.78C37.1944 10.78 36.8157 10.8707 36.5277 11.052C36.2451 11.2333 36.0371 11.4547 35.9037 11.716C35.7704 11.972 35.6931 12.2173 35.6717 12.452H39.5117ZM43.8247 16.5H42.4247V5.492H43.8247V16.5ZM46.7019 13.5C46.7072 13.8947 46.7925 14.2547 46.9579 14.58C47.1232 14.9053 47.3685 15.164 47.6939 15.356C48.0245 15.548 48.4299 15.644 48.9099 15.644C49.3152 15.644 49.6592 15.5853 49.9419 15.468C50.2299 15.3453 50.4645 15.2013 50.6459 15.036C50.8272 14.8653 50.9579 14.7133 51.0379 14.58L51.7179 15.42C51.5419 15.676 51.3259 15.9 51.0699 16.092C50.8192 16.284 50.5125 16.4307 50.1499 16.532C49.7872 16.6387 49.3445 16.692 48.8219 16.692C48.1179 16.692 47.5072 16.5427 46.9899 16.244C46.4779 15.94 46.0832 15.5213 45.8059 14.988C45.5285 14.4493 45.3899 13.8333 45.3899 13.14C45.3899 12.5 45.5205 11.924 45.7819 11.412C46.0432 10.8947 46.4219 10.4867 46.9179 10.188C47.4192 9.88933 48.0219 9.74 48.7259 9.74C49.3712 9.74 49.9312 9.876 50.4059 10.148C50.8859 10.4147 51.2565 10.7933 51.5179 11.284C51.7845 11.7747 51.9179 12.3613 51.9179 13.044C51.9179 13.0867 51.9152 13.164 51.9099 13.276C51.9045 13.3827 51.8992 13.4573 51.8939 13.5H46.7019ZM50.5899 12.452C50.5845 12.2333 50.5205 11.9933 50.3979 11.732C50.2805 11.4707 50.0885 11.2467 49.8219 11.06C49.5552 10.8733 49.1952 10.78 48.7419 10.78C48.2725 10.78 47.8939 10.8707 47.6059 11.052C47.3232 11.2333 47.1152 11.4547 46.9819 11.716C46.8485 11.972 46.7712 12.2173 46.7499 12.452H50.5899ZM56.3509 16.692C55.7482 16.692 55.2069 16.548 54.7269 16.26C54.2522 15.972 53.8762 15.5693 53.5989 15.052C53.3269 14.5293 53.1909 13.9187 53.1909 13.22C53.1909 12.5213 53.3269 11.9133 53.5989 11.396C53.8762 10.8733 54.2522 10.468 54.7269 10.18C55.2069 9.88667 55.7482 9.74 56.3509 9.74C56.8362 9.74 57.2629 9.82533 57.6309 9.996C57.9989 10.1613 58.2922 10.356 58.5109 10.58C58.7295 10.804 58.8549 10.9987 58.8869 11.164V5.492H60.2869V16.5H58.9109V15.22C58.8522 15.4013 58.7055 15.6067 58.4709 15.836C58.2415 16.0653 57.9455 16.2653 57.5829 16.436C57.2202 16.6067 56.8095 16.692 56.3509 16.692ZM56.6709 15.54C57.0762 15.54 57.4469 15.444 57.7829 15.252C58.1189 15.06 58.3855 14.7907 58.5829 14.444C58.7855 14.092 58.8869 13.684 58.8869 13.22C58.8869 12.756 58.7855 12.3507 58.5829 12.004C58.3855 11.652 58.1189 11.38 57.7829 11.188C57.4469 10.9907 57.0762 10.892 56.6709 10.892C56.2975 10.892 55.9509 10.988 55.6309 11.18C55.3109 11.372 55.0522 11.6413 54.8549 11.988C54.6629 12.3347 54.5669 12.7453 54.5669 13.22C54.5669 13.6947 54.6629 14.1053 54.8549 14.452C55.0522 14.7987 55.3109 15.068 55.6309 15.26C55.9509 15.4467 56.2975 15.54 56.6709 15.54Z" fill="#FF4768"/>
<path d="M77.5014 9L70.5042 16" stroke="#FF4768" stroke-width="1.5" stroke-linecap="round" stroke-linejoin="round"/>
<path d="M70.5042 9L77.5014 16" stroke="#FF4768" stroke-width="1.5" stroke-linecap="round" stroke-linejoin="round"/>
</svg>
