<svg width="81" height="25" viewBox="0 0 81 25" fill="none" xmlns="http://www.w3.org/2000/svg">
<path d="M0.973 5.94H3.461C4.58633 5.94 5.51167 6.16667 6.237 6.62C6.96767 7.068 7.509 7.68933 7.861 8.484C8.213 9.27867 8.389 10.188 8.389 11.212C8.389 12.2413 8.213 13.1533 7.861 13.948C7.509 14.7427 6.97033 15.3667 6.245 15.82C5.51967 16.2733 4.59167 16.5 3.461 16.5H0.973V5.94ZM2.333 7.188V15.252H3.349C4.181 15.252 4.861 15.0787 5.389 14.732C5.917 14.3853 6.30633 13.9107 6.557 13.308C6.813 12.7 6.94367 12.0067 6.949 11.228C6.949 10.444 6.82367 9.75067 6.573 9.148C6.32233 8.54 5.93033 8.06267 5.397 7.716C4.86367 7.364 4.181 7.188 3.349 7.188H2.333ZM10.962 13.5C10.9673 13.8947 11.0527 14.2547 11.218 14.58C11.3833 14.9053 11.6287 15.164 11.954 15.356C12.2847 15.548 12.69 15.644 13.17 15.644C13.5753 15.644 13.9193 15.5853 14.202 15.468C14.49 15.3453 14.7247 15.2013 14.906 15.036C15.0873 14.8653 15.218 14.7133 15.298 14.58L15.978 15.42C15.802 15.676 15.586 15.9 15.33 16.092C15.0793 16.284 14.7727 16.4307 14.41 16.532C14.0473 16.6387 13.6047 16.692 13.082 16.692C12.378 16.692 11.7673 16.5427 11.25 16.244C10.738 15.94 10.3433 15.5213 10.066 14.988C9.78867 14.4493 9.65 13.8333 9.65 13.14C9.65 12.5 9.78067 11.924 10.042 11.412C10.3033 10.8947 10.682 10.4867 11.178 10.188C11.6793 9.88933 12.282 9.74 12.986 9.74C13.6313 9.74 14.1913 9.876 14.666 10.148C15.146 10.4147 15.5167 10.7933 15.778 11.284C16.0447 11.7747 16.178 12.3613 16.178 13.044C16.178 13.0867 16.1753 13.164 16.17 13.276C16.1647 13.3827 16.1593 13.4573 16.154 13.5H10.962ZM14.85 12.452C14.8447 12.2333 14.7807 11.9933 14.658 11.732C14.5407 11.4707 14.3487 11.2467 14.082 11.06C13.8153 10.8733 13.4553 10.78 13.002 10.78C12.5327 10.78 12.154 10.8707 11.866 11.052C11.5833 11.2333 11.3753 11.4547 11.242 11.716C11.1087 11.972 11.0313 12.2173 11.01 12.452H14.85ZM19.163 16.5H17.763V5.492H19.163V16.5ZM21.3201 16.5V9.932H22.7121V16.5H21.3201ZM22.0321 7.684C21.7815 7.684 21.5655 7.596 21.3841 7.42C21.2081 7.23867 21.1201 7.02267 21.1201 6.772C21.1201 6.52133 21.2081 6.30533 21.3841 6.124C21.5655 5.94267 21.7815 5.852 22.0321 5.852C22.1975 5.852 22.3495 5.89467 22.4881 5.98C22.6321 6.06533 22.7468 6.17733 22.8321 6.316C22.9175 6.44933 22.9601 6.60133 22.9601 6.772C22.9601 7.02267 22.8695 7.23867 22.6881 7.42C22.5068 7.596 22.2881 7.684 22.0321 7.684ZM24.184 9.932H25.68L27.824 15.212L29.968 9.932H31.456L28.648 16.5H27.008L24.184 9.932ZM33.6339 13.5C33.6392 13.8947 33.7245 14.2547 33.8899 14.58C34.0552 14.9053 34.3005 15.164 34.6259 15.356C34.9565 15.548 35.3619 15.644 35.8419 15.644C36.2472 15.644 36.5912 15.5853 36.8739 15.468C37.1619 15.3453 37.3965 15.2013 37.5779 15.036C37.7592 14.8653 37.8899 14.7133 37.9699 14.58L38.6499 15.42C38.4739 15.676 38.2579 15.9 38.0019 16.092C37.7512 16.284 37.4445 16.4307 37.0819 16.532C36.7192 16.6387 36.2765 16.692 35.7539 16.692C35.0499 16.692 34.4392 16.5427 33.9219 16.244C33.4099 15.94 33.0152 15.5213 32.7379 14.988C32.4605 14.4493 32.3219 13.8333 32.3219 13.14C32.3219 12.5 32.4525 11.924 32.7139 11.412C32.9752 10.8947 33.3539 10.4867 33.8499 10.188C34.3512 9.88933 34.9539 9.74 35.6579 9.74C36.3032 9.74 36.8632 9.876 37.3379 10.148C37.8179 10.4147 38.1885 10.7933 38.4499 11.284C38.7165 11.7747 38.8499 12.3613 38.8499 13.044C38.8499 13.0867 38.8472 13.164 38.8419 13.276C38.8365 13.3827 38.8312 13.4573 38.8259 13.5H33.6339ZM37.5219 12.452C37.5165 12.2333 37.4525 11.9933 37.3299 11.732C37.2125 11.4707 37.0205 11.2467 36.7539 11.06C36.4872 10.8733 36.1272 10.78 35.6739 10.78C35.2045 10.78 34.8259 10.8707 34.5379 11.052C34.2552 11.2333 34.0472 11.4547 33.9139 11.716C33.7805 11.972 33.7032 12.2173 33.6819 12.452H37.5219ZM41.7549 16.5H40.3709V9.932H41.7549V11.068H41.7149C41.7415 10.9293 41.8402 10.756 42.0109 10.548C42.1815 10.34 42.4162 10.1533 42.7149 9.988C43.0135 9.82267 43.3709 9.74 43.7869 9.74C44.0909 9.74 44.3575 9.78267 44.5869 9.868C44.8215 9.948 44.9869 10.028 45.0829 10.108L44.5149 11.26C44.4402 11.1853 44.3095 11.1107 44.1229 11.036C43.9362 10.956 43.7042 10.916 43.4269 10.916C43.0749 10.916 42.7735 11.0253 42.5229 11.244C42.2722 11.4627 42.0802 11.7267 41.9469 12.036C41.8189 12.34 41.7549 12.6227 41.7549 12.884V16.5ZM46.6964 13.5C46.7017 13.8947 46.787 14.2547 46.9524 14.58C47.1177 14.9053 47.363 15.164 47.6884 15.356C48.019 15.548 48.4244 15.644 48.9044 15.644C49.3097 15.644 49.6537 15.5853 49.9364 15.468C50.2244 15.3453 50.459 15.2013 50.6404 15.036C50.8217 14.8653 50.9524 14.7133 51.0324 14.58L51.7124 15.42C51.5364 15.676 51.3204 15.9 51.0644 16.092C50.8137 16.284 50.507 16.4307 50.1444 16.532C49.7817 16.6387 49.339 16.692 48.8164 16.692C48.1124 16.692 47.5017 16.5427 46.9844 16.244C46.4724 15.94 46.0777 15.5213 45.8004 14.988C45.523 14.4493 45.3844 13.8333 45.3844 13.14C45.3844 12.5 45.515 11.924 45.7764 11.412C46.0377 10.8947 46.4164 10.4867 46.9124 10.188C47.4137 9.88933 48.0164 9.74 48.7204 9.74C49.3657 9.74 49.9257 9.876 50.4004 10.148C50.8804 10.4147 51.251 10.7933 51.5124 11.284C51.779 11.7747 51.9124 12.3613 51.9124 13.044C51.9124 13.0867 51.9097 13.164 51.9044 13.276C51.899 13.3827 51.8937 13.4573 51.8884 13.5H46.6964ZM50.5844 12.452C50.579 12.2333 50.515 11.9933 50.3924 11.732C50.275 11.4707 50.083 11.2467 49.8164 11.06C49.5497 10.8733 49.1897 10.78 48.7364 10.78C48.267 10.78 47.8884 10.8707 47.6004 11.052C47.3177 11.2333 47.1097 11.4547 46.9764 11.716C46.843 11.972 46.7657 12.2173 46.7444 12.452H50.5844ZM56.3454 16.692C55.7427 16.692 55.2014 16.548 54.7214 16.26C54.2467 15.972 53.8707 15.5693 53.5934 15.052C53.3214 14.5293 53.1854 13.9187 53.1854 13.22C53.1854 12.5213 53.3214 11.9133 53.5934 11.396C53.8707 10.8733 54.2467 10.468 54.7214 10.18C55.2014 9.88667 55.7427 9.74 56.3454 9.74C56.8307 9.74 57.2574 9.82533 57.6254 9.996C57.9934 10.1613 58.2867 10.356 58.5054 10.58C58.724 10.804 58.8494 10.9987 58.8814 11.164V5.492H60.2814V16.5H58.9054V15.22C58.8467 15.4013 58.7 15.6067 58.4654 15.836C58.236 16.0653 57.94 16.2653 57.5774 16.436C57.2147 16.6067 56.804 16.692 56.3454 16.692ZM56.6654 15.54C57.0707 15.54 57.4414 15.444 57.7774 15.252C58.1134 15.06 58.38 14.7907 58.5774 14.444C58.78 14.092 58.8814 13.684 58.8814 13.22C58.8814 12.756 58.78 12.3507 58.5774 12.004C58.38 11.652 58.1134 11.38 57.7774 11.188C57.4414 10.9907 57.0707 10.892 56.6654 10.892C56.292 10.892 55.9454 10.988 55.6254 11.18C55.3054 11.372 55.0467 11.6413 54.8494 11.988C54.6574 12.3347 54.5614 12.7453 54.5614 13.22C54.5614 13.6947 54.6574 14.1053 54.8494 14.452C55.0467 14.7987 55.3054 15.068 55.6254 15.26C55.9454 15.4467 56.292 15.54 56.6654 15.54Z" fill="#15C7FF"/>
<g clip-path="url(#clip0_402_1821)">
<path d="M79.3333 8.5L72 15.8333L68.6666 12.5" stroke="#15C7FF" stroke-width="1.5" stroke-linecap="round" stroke-linejoin="round"/>
</g>
<defs>
<clipPath id="clip0_402_1821">
<rect width="14" height="10" fill="white" transform="translate(67 7.5)"/>
</clipPath>
</defs>
</svg>
