<svg width="81" height="24" viewBox="0 0 81 24" fill="none" xmlns="http://www.w3.org/2000/svg">
<path fill-rule="evenodd" clip-rule="evenodd" d="M7.33333 4.5C4.66396 4.5 2.5 6.66396 2.5 9.33333C2.5 12.0027 4.66396 14.1667 7.33333 14.1667C10.0027 14.1667 12.1667 12.0027 12.1667 9.33333C12.1667 6.66396 10.0027 4.5 7.33333 4.5ZM1.5 9.33333C1.5 6.11167 4.11167 3.5 7.33333 3.5C10.555 3.5 13.1667 6.11167 13.1667 9.33333C13.1667 12.555 10.555 15.1667 7.33333 15.1667C4.11167 15.1667 1.5 12.555 1.5 9.33333Z" fill="#666E84"/>
<path fill-rule="evenodd" clip-rule="evenodd" d="M10.6286 12.6286C10.8889 12.3682 11.3111 12.3682 11.5714 12.6286L14.4714 15.5286C14.7318 15.7889 14.7318 16.2111 14.4714 16.4714C14.2111 16.7318 13.7889 16.7318 13.5286 16.4714L10.6286 13.5714C10.3682 13.3111 10.3682 12.8889 10.6286 12.6286Z" fill="#666E84"/>
<path d="M27.168 5.248C27.776 5.248 28.2987 5.31733 28.736 5.456C29.1787 5.59467 29.5253 5.74133 29.776 5.896C30.032 6.05067 30.184 6.152 30.232 6.2L29.528 7.328C29.448 7.25867 29.3067 7.16 29.104 7.032C28.9013 6.89867 28.648 6.78133 28.344 6.68C28.04 6.57333 27.6933 6.52 27.304 6.52C26.7013 6.52 26.224 6.64267 25.872 6.888C25.5253 7.128 25.352 7.46933 25.352 7.912C25.352 8.21067 25.4427 8.47467 25.624 8.704C25.8107 8.928 26.072 9.13333 26.408 9.32C26.744 9.50667 27.136 9.69867 27.584 9.896C27.952 10.0507 28.312 10.2267 28.664 10.424C29.0213 10.6213 29.344 10.8533 29.632 11.12C29.9253 11.3867 30.1573 11.696 30.328 12.048C30.504 12.4 30.592 12.8053 30.592 13.264C30.592 13.7173 30.4987 14.1253 30.312 14.488C30.1307 14.8507 29.872 15.16 29.536 15.416C29.2053 15.6667 28.8187 15.8587 28.376 15.992C27.9333 16.1253 27.456 16.192 26.944 16.192C26.2987 16.192 25.7147 16.112 25.192 15.952C24.6747 15.792 24.256 15.624 23.936 15.448C23.6213 15.272 23.44 15.1627 23.392 15.12L24.136 13.944C24.2 13.9973 24.3173 14.0773 24.488 14.184C24.6587 14.2853 24.8693 14.392 25.12 14.504C25.3707 14.616 25.6533 14.712 25.968 14.792C26.2827 14.8667 26.6187 14.904 26.976 14.904C27.6907 14.904 28.232 14.744 28.6 14.424C28.968 14.104 29.152 13.6933 29.152 13.192C29.152 12.808 29.0347 12.4773 28.8 12.2C28.5653 11.9227 28.2533 11.6747 27.864 11.456C27.4747 11.2373 27.0453 11.0267 26.576 10.824C26.096 10.6053 25.656 10.3653 25.256 10.104C24.856 9.84267 24.5333 9.53067 24.288 9.168C24.048 8.8 23.928 8.35733 23.928 7.84C23.928 7.328 24.072 6.87733 24.36 6.488C24.6533 6.09867 25.0453 5.79467 25.536 5.576C26.032 5.35733 26.576 5.248 27.168 5.248ZM33.1651 13C33.1705 13.3947 33.2558 13.7547 33.4211 14.08C33.5865 14.4053 33.8318 14.664 34.1571 14.856C34.4878 15.048 34.8931 15.144 35.3731 15.144C35.7785 15.144 36.1225 15.0853 36.4051 14.968C36.6931 14.8453 36.9278 14.7013 37.1091 14.536C37.2905 14.3653 37.4211 14.2133 37.5011 14.08L38.1811 14.92C38.0051 15.176 37.7891 15.4 37.5331 15.592C37.2825 15.784 36.9758 15.9307 36.6131 16.032C36.2505 16.1387 35.8078 16.192 35.2851 16.192C34.5811 16.192 33.9705 16.0427 33.4531 15.744C32.9411 15.44 32.5465 15.0213 32.2691 14.488C31.9918 13.9493 31.8531 13.3333 31.8531 12.64C31.8531 12 31.9838 11.424 32.2451 10.912C32.5065 10.3947 32.8851 9.98667 33.3811 9.688C33.8825 9.38933 34.4851 9.24 35.1891 9.24C35.8345 9.24 36.3945 9.376 36.8691 9.648C37.3491 9.91467 37.7198 10.2933 37.9811 10.784C38.2478 11.2747 38.3811 11.8613 38.3811 12.544C38.3811 12.5867 38.3785 12.664 38.3731 12.776C38.3678 12.8827 38.3625 12.9573 38.3571 13H33.1651ZM37.0531 11.952C37.0478 11.7333 36.9838 11.4933 36.8611 11.232C36.7438 10.9707 36.5518 10.7467 36.2851 10.56C36.0185 10.3733 35.6585 10.28 35.2051 10.28C34.7358 10.28 34.3571 10.3707 34.0691 10.552C33.7865 10.7333 33.5785 10.9547 33.4451 11.216C33.3118 11.472 33.2345 11.7173 33.2131 11.952H37.0531ZM45.1981 16V14.72C45.1555 14.8533 45.0301 15.0373 44.8221 15.272C44.6195 15.5067 44.3395 15.72 43.9821 15.912C43.6301 16.0987 43.2141 16.192 42.7341 16.192C42.1261 16.192 41.5741 16.048 41.0781 15.76C40.5875 15.472 40.1955 15.0693 39.9021 14.552C39.6141 14.0293 39.4701 13.4187 39.4701 12.72C39.4701 12.0213 39.6141 11.4133 39.9021 10.896C40.1955 10.3733 40.5875 9.968 41.0781 9.68C41.5741 9.38667 42.1261 9.24 42.7341 9.24C43.2088 9.24 43.6195 9.32533 43.9661 9.496C44.3181 9.66667 44.5981 9.864 44.8061 10.088C45.0195 10.312 45.1448 10.504 45.1821 10.664V9.432H46.5581V16H45.1981ZM40.8461 12.72C40.8461 13.1947 40.9501 13.6053 41.1581 13.952C41.3661 14.2987 41.6355 14.568 41.9661 14.76C42.3021 14.9467 42.6595 15.04 43.0381 15.04C43.4435 15.04 43.8061 14.944 44.1261 14.752C44.4461 14.56 44.6995 14.2907 44.8861 13.944C45.0728 13.592 45.1661 13.184 45.1661 12.72C45.1661 12.256 45.0728 11.8507 44.8861 11.504C44.6995 11.152 44.4461 10.88 44.1261 10.688C43.8061 10.4907 43.4435 10.392 43.0381 10.392C42.6595 10.392 42.3021 10.488 41.9661 10.68C41.6355 10.872 41.3661 11.1413 41.1581 11.488C40.9501 11.8347 40.8461 12.2453 40.8461 12.72ZM49.7861 16H48.4021V9.432H49.7861V10.568H49.7461C49.7728 10.4293 49.8715 10.256 50.0421 10.048C50.2128 9.84 50.4475 9.65333 50.7461 9.488C51.0448 9.32267 51.4021 9.24 51.8181 9.24C52.1221 9.24 52.3888 9.28267 52.6181 9.368C52.8528 9.448 53.0181 9.528 53.1141 9.608L52.5461 10.76C52.4715 10.6853 52.3408 10.6107 52.1541 10.536C51.9675 10.456 51.7355 10.416 51.4581 10.416C51.1061 10.416 50.8048 10.5253 50.5541 10.744C50.3035 10.9627 50.1115 11.2267 49.9781 11.536C49.8501 11.84 49.7861 12.1227 49.7861 12.384V16ZM56.9516 15.04C57.3676 15.04 57.7036 14.9733 57.9596 14.84C58.2156 14.7067 58.3756 14.6107 58.4396 14.552L59.1196 15.552C59.0663 15.6 58.9383 15.6773 58.7356 15.784C58.5383 15.8853 58.2823 15.9787 57.9676 16.064C57.6583 16.1493 57.3063 16.192 56.9116 16.192C56.309 16.192 55.749 16.0587 55.2316 15.792C54.7143 15.52 54.2956 15.1253 53.9756 14.608C53.661 14.0907 53.5036 13.4587 53.5036 12.712C53.5036 11.96 53.661 11.328 53.9756 10.816C54.2956 10.2987 54.7143 9.90667 55.2316 9.64C55.749 9.37333 56.309 9.24 56.9116 9.24C57.301 9.24 57.6476 9.288 57.9516 9.384C58.2556 9.47467 58.5063 9.576 58.7036 9.688C58.901 9.8 59.0316 9.88533 59.0956 9.944L58.4076 10.944C58.365 10.9013 58.2823 10.8373 58.1596 10.752C58.0423 10.6613 57.8823 10.5787 57.6796 10.504C57.477 10.4293 57.2343 10.392 56.9516 10.392C56.6103 10.392 56.277 10.4853 55.9516 10.672C55.6316 10.8533 55.3676 11.1173 55.1596 11.464C54.9516 11.8107 54.8476 12.2267 54.8476 12.712C54.8476 13.1973 54.9516 13.616 55.1596 13.968C55.3676 14.3147 55.6316 14.5813 55.9516 14.768C56.277 14.9493 56.6103 15.04 56.9516 15.04ZM64.2163 9.24C64.6483 9.24 65.0669 9.33067 65.4723 9.512C65.8829 9.69333 66.2189 9.98133 66.4803 10.376C66.7469 10.7653 66.8803 11.2747 66.8803 11.904V16H65.4723V12.176C65.4723 11.5253 65.3229 11.0533 65.0243 10.76C64.7309 10.4613 64.3443 10.312 63.8643 10.312C63.5443 10.312 63.2376 10.4027 62.9443 10.584C62.6509 10.76 62.4083 11.0053 62.2163 11.32C62.0296 11.6293 61.9363 11.9813 61.9363 12.376V16H60.5283V4.992H61.9363V10.6C61.9843 10.4187 62.1123 10.2213 62.3203 10.008C62.5336 9.79467 62.8056 9.61333 63.1363 9.464C63.4669 9.31467 63.8269 9.24 64.2163 9.24Z" fill="#666E84"/>
</svg>
