<svg width="94" height="25" viewBox="0 0 94 25" fill="none" xmlns="http://www.w3.org/2000/svg">
<path d="M2.59216 11.212C2.59216 11.996 2.75483 12.7027 3.08016 13.332C3.41083 13.9613 3.86416 14.4627 4.44016 14.836C5.01616 15.204 5.6775 15.388 6.42416 15.388C7.17616 15.388 7.8375 15.204 8.40816 14.836C8.98416 14.4627 9.43483 13.9613 9.76016 13.332C10.0855 12.7027 10.2482 11.996 10.2482 11.212C10.2482 10.428 10.0855 9.724 9.76016 9.1C9.43483 8.47067 8.98416 7.972 8.40816 7.604C7.8375 7.236 7.17616 7.052 6.42416 7.052C5.6775 7.052 5.01616 7.236 4.44016 7.604C3.86416 7.972 3.41083 8.47067 3.08016 9.1C2.75483 9.724 2.59216 10.428 2.59216 11.212ZM1.17616 11.212C1.17616 10.444 1.30683 9.72933 1.56816 9.068C1.83483 8.40133 2.2055 7.82 2.68016 7.324C3.15483 6.828 3.7095 6.44133 4.34416 6.164C4.98416 5.88667 5.6775 5.748 6.42416 5.748C7.17616 5.748 7.8695 5.88667 8.50416 6.164C9.14416 6.44133 9.69883 6.828 10.1682 7.324C10.6428 7.82 11.0108 8.40133 11.2722 9.068C11.5335 9.72933 11.6642 10.444 11.6642 11.212C11.6642 11.9853 11.5335 12.7053 11.2722 13.372C11.0162 14.0333 10.6508 14.6147 10.1762 15.116C9.70683 15.612 9.15483 15.9987 8.52016 16.276C7.8855 16.5533 7.18683 16.692 6.42416 16.692C5.6615 16.692 4.9575 16.5533 4.31216 16.276C3.67216 15.9987 3.1175 15.612 2.64816 15.116C2.17883 14.6147 1.81616 14.0333 1.56016 13.372C1.30416 12.7053 1.17616 11.9853 1.17616 11.212ZM16.8907 9.74C17.3227 9.74 17.7413 9.83067 18.1467 10.012C18.5573 10.1933 18.8933 10.4813 19.1547 10.876C19.4213 11.2653 19.5547 11.7747 19.5547 12.404V16.5H18.1467V12.676C18.1467 12.0253 17.9947 11.5533 17.6907 11.26C17.3867 10.9613 16.9947 10.812 16.5147 10.812C16.2 10.812 15.896 10.9027 15.6027 11.084C15.3147 11.26 15.0773 11.5053 14.8907 11.82C14.704 12.1293 14.6107 12.4813 14.6107 12.876V16.5H13.2187V9.932H14.6107V11.1C14.6587 10.9187 14.7893 10.7213 15.0027 10.508C15.216 10.2947 15.488 10.1133 15.8187 9.964C16.1493 9.81467 16.5067 9.74 16.8907 9.74ZM25.5113 16.5V9.932H26.9033V16.5H25.5113ZM26.2233 7.684C25.9726 7.684 25.7566 7.596 25.5753 7.42C25.3993 7.23867 25.3113 7.02267 25.3113 6.772C25.3113 6.52133 25.3993 6.30533 25.5753 6.124C25.7566 5.94267 25.9726 5.852 26.2233 5.852C26.3886 5.852 26.5406 5.89467 26.6793 5.98C26.8233 6.06533 26.938 6.17733 27.0233 6.316C27.1086 6.44933 27.1513 6.60133 27.1513 6.772C27.1513 7.02267 27.0606 7.23867 26.8793 7.42C26.698 7.596 26.4793 7.684 26.2233 7.684ZM28.4712 9.932H29.7592V7.236H31.1432V9.932H32.8312V11.124H31.1432V14.372C31.1432 14.756 31.2098 15.0387 31.3432 15.22C31.4818 15.4013 31.6658 15.492 31.8952 15.492C32.0978 15.492 32.2552 15.4547 32.3672 15.38C32.4792 15.3053 32.5458 15.2547 32.5672 15.228L33.1192 16.252C33.0872 16.2787 33.0018 16.3293 32.8632 16.404C32.7245 16.4787 32.5458 16.5453 32.3272 16.604C32.1085 16.6627 31.8525 16.692 31.5592 16.692C31.0472 16.692 30.6178 16.5373 30.2712 16.228C29.9298 15.9133 29.7592 15.4173 29.7592 14.74V11.124H28.4712V9.932ZM34.688 9.852L34.264 9.372C34.3974 9.31867 34.5467 9.22 34.712 9.076C34.8827 8.92667 35.0294 8.75867 35.152 8.572C35.28 8.38 35.3467 8.19067 35.352 8.004C35.3094 8.06267 35.2267 8.116 35.104 8.164C34.9867 8.20667 34.864 8.228 34.736 8.228C34.496 8.228 34.28 8.14 34.088 7.964C33.9014 7.788 33.808 7.54267 33.808 7.228C33.808 6.85467 33.9227 6.55867 34.152 6.34C34.3867 6.12133 34.68 6.012 35.032 6.012C35.3787 6.012 35.6694 6.13467 35.904 6.38C36.1387 6.62 36.256 6.96667 36.256 7.42C36.256 7.836 36.176 8.204 36.016 8.524C35.856 8.844 35.656 9.116 35.416 9.34C35.176 9.55867 34.9334 9.72933 34.688 9.852ZM40.4014 9.74C40.7427 9.74 41.0601 9.77467 41.3534 9.844C41.6521 9.91333 41.9081 9.996 42.1214 10.092C42.3401 10.188 42.4947 10.2733 42.5854 10.348L42.0334 11.228C41.9267 11.132 41.7347 11.0253 41.4574 10.908C41.1801 10.7853 40.8707 10.724 40.5294 10.724C40.1561 10.724 39.8387 10.7987 39.5774 10.948C39.3161 11.092 39.1854 11.3027 39.1854 11.58C39.1854 11.8573 39.3187 12.0787 39.5854 12.244C39.8574 12.404 40.2201 12.5373 40.6734 12.644C41.0361 12.7293 41.3747 12.844 41.6894 12.988C42.0094 13.132 42.2681 13.332 42.4654 13.588C42.6627 13.8387 42.7614 14.1747 42.7614 14.596C42.7614 14.98 42.6814 15.308 42.5214 15.58C42.3614 15.8467 42.1454 16.0627 41.8734 16.228C41.6014 16.388 41.2974 16.5053 40.9614 16.58C40.6254 16.6547 40.2841 16.692 39.9374 16.692C39.5321 16.692 39.1667 16.6493 38.8414 16.564C38.5161 16.484 38.2414 16.388 38.0174 16.276C37.7987 16.1587 37.6387 16.0573 37.5374 15.972L38.0894 14.98C38.2281 15.1133 38.4547 15.2547 38.7694 15.404C39.0894 15.5533 39.4521 15.628 39.8574 15.628C40.3054 15.628 40.6681 15.5347 40.9454 15.348C41.2227 15.156 41.3614 14.908 41.3614 14.604C41.3614 14.3747 41.2947 14.1907 41.1614 14.052C41.0281 13.9133 40.8494 13.8013 40.6254 13.716C40.4014 13.6307 40.1561 13.556 39.8894 13.492C39.6334 13.4333 39.3827 13.356 39.1374 13.26C38.8974 13.164 38.6761 13.0413 38.4734 12.892C38.2761 12.7373 38.1187 12.5507 38.0014 12.332C37.8841 12.108 37.8254 11.8467 37.8254 11.548C37.8254 11.1693 37.9454 10.8467 38.1854 10.58C38.4254 10.308 38.7401 10.1 39.1294 9.956C39.5187 9.812 39.9427 9.74 40.4014 9.74ZM52.6873 11.58L51.0153 16.5H49.5753L47.7913 9.932H49.2713L50.4633 14.98L52.1113 10.06H53.2633L54.8953 14.98L56.0953 9.932H57.5833L55.7993 16.5H54.3593L52.6873 11.58ZM64.233 16.5V15.22C64.1904 15.3533 64.065 15.5373 63.857 15.772C63.6544 16.0067 63.3744 16.22 63.017 16.412C62.665 16.5987 62.249 16.692 61.769 16.692C61.161 16.692 60.609 16.548 60.113 16.26C59.6224 15.972 59.2304 15.5693 58.937 15.052C58.649 14.5293 58.505 13.9187 58.505 13.22C58.505 12.5213 58.649 11.9133 58.937 11.396C59.2304 10.8733 59.6224 10.468 60.113 10.18C60.609 9.88667 61.161 9.74 61.769 9.74C62.2437 9.74 62.6544 9.82533 63.001 9.996C63.353 10.1667 63.633 10.364 63.841 10.588C64.0544 10.812 64.1797 11.004 64.217 11.164V9.932H65.593V16.5H64.233ZM59.881 13.22C59.881 13.6947 59.985 14.1053 60.193 14.452C60.401 14.7987 60.6704 15.068 61.001 15.26C61.337 15.4467 61.6944 15.54 62.073 15.54C62.4784 15.54 62.841 15.444 63.161 15.252C63.481 15.06 63.7344 14.7907 63.921 14.444C64.1077 14.092 64.201 13.684 64.201 13.22C64.201 12.756 64.1077 12.3507 63.921 12.004C63.7344 11.652 63.481 11.38 63.161 11.188C62.841 10.9907 62.4784 10.892 62.073 10.892C61.6944 10.892 61.337 10.988 61.001 11.18C60.6704 11.372 60.401 11.6413 60.193 11.988C59.985 12.3347 59.881 12.7453 59.881 13.22ZM70.181 15.228L72.397 9.932H73.789L69.357 19.828H67.949L69.437 16.5L66.733 9.932H68.149L70.181 15.228Z" fill="#FCC55E"/>
<g clip-path="url(#clip0_402_409)">
<path d="M89.3345 7.25H80.5868V14.8333H89.3345V7.25Z" stroke="#FCC55E" stroke-width="1.5" stroke-linecap="round" stroke-linejoin="round"/>
<path d="M89.3345 10.1667H91.6672L93.4167 11.9167V14.8334H89.3345V10.1667Z" stroke="#FCC55E" stroke-width="1.5" stroke-linecap="round" stroke-linejoin="round"/>
<path d="M83.2111 17.7499C84.0163 17.7499 84.6691 17.097 84.6691 16.2916C84.6691 15.4862 84.0163 14.8333 83.2111 14.8333C82.4059 14.8333 81.7532 15.4862 81.7532 16.2916C81.7532 17.097 82.4059 17.7499 83.2111 17.7499Z" stroke="#FCC55E" stroke-width="1.5" stroke-linecap="round" stroke-linejoin="round"/>
<path d="M90.7924 17.7499C91.5976 17.7499 92.2504 17.097 92.2504 16.2916C92.2504 15.4862 91.5976 14.8333 90.7924 14.8333C89.9872 14.8333 89.3345 15.4862 89.3345 16.2916C89.3345 17.097 89.9872 17.7499 90.7924 17.7499Z" stroke="#FCC55E" stroke-width="1.5" stroke-linecap="round" stroke-linejoin="round"/>
</g>
<defs>
<clipPath id="clip0_402_409">
<rect width="13.9963" height="14" fill="white" transform="translate(80.0037 5.5)"/>
</clipPath>
</defs>
</svg>
