<svg width="161" height="111" viewBox="0 0 161 111" fill="none" xmlns="http://www.w3.org/2000/svg">
<path d="M150.118 103.674C149.83 103.578 149.542 103.501 149.236 103.425C148.66 103.271 148.066 103.156 147.49 103.079C147.203 103.041 146.915 103.003 146.627 102.964C145.803 102.868 145.132 102.216 145.036 101.373C144.997 101.085 144.959 100.797 144.921 100.51C144.825 99.9342 144.71 99.3397 144.575 98.7644C144.499 98.4767 144.422 98.189 144.326 97.8822C144.23 97.5945 144.134 97.3068 144 97C143.866 97.2877 143.77 97.5753 143.674 97.8822C143.578 98.1699 143.501 98.4575 143.425 98.7644C143.271 99.3397 143.156 99.9342 143.079 100.51C143.041 100.797 143.003 101.085 142.964 101.373C142.869 102.197 142.216 102.868 141.373 102.964C141.085 103.003 140.797 103.041 140.51 103.079C139.934 103.175 139.34 103.29 138.764 103.425C138.477 103.501 138.189 103.578 137.882 103.674C137.595 103.77 137.307 103.866 137 104C137.288 104.134 137.575 104.23 137.882 104.326C138.17 104.422 138.458 104.499 138.764 104.575C139.34 104.729 139.934 104.844 140.51 104.921C140.797 104.959 141.085 104.997 141.373 105.036C142.197 105.132 142.869 105.784 142.964 106.627C143.003 106.915 143.041 107.203 143.079 107.49C143.175 108.066 143.29 108.66 143.425 109.236C143.501 109.523 143.578 109.811 143.674 110.118C143.77 110.405 143.866 110.693 144 111C144.134 110.712 144.23 110.425 144.326 110.118C144.422 109.83 144.499 109.542 144.575 109.236C144.729 108.66 144.844 108.066 144.921 107.49C144.959 107.203 144.997 106.915 145.036 106.627C145.132 105.803 145.784 105.132 146.627 105.036C146.915 104.997 147.203 104.959 147.49 104.921C148.066 104.825 148.66 104.71 149.236 104.575C149.523 104.499 149.811 104.422 150.118 104.326C150.405 104.23 150.693 104.134 151 104C150.693 103.866 150.405 103.77 150.118 103.674Z" fill="url(#paint0_linear_32_1028)"/>
<path d="M160.306 95.243C160.075 95.1659 159.843 95.1145 159.612 95.0374C159.15 94.9346 158.687 94.8318 158.25 94.7547C158.019 94.729 157.787 94.7033 157.582 94.6776C156.939 94.6005 156.4 94.0864 156.322 93.4182C156.297 93.1869 156.271 92.9556 156.245 92.75C156.168 92.2874 156.091 91.8248 155.963 91.3879C155.911 91.1565 155.834 90.9252 155.757 90.6939C155.68 90.4626 155.603 90.2313 155.5 90C155.397 90.2313 155.32 90.4626 155.243 90.6939C155.166 90.9252 155.114 91.1565 155.037 91.3879C154.935 91.8505 154.832 92.3131 154.755 92.75C154.729 92.9813 154.703 93.2126 154.678 93.4182C154.6 94.0607 154.086 94.6005 153.418 94.6776C153.187 94.7033 152.956 94.729 152.75 94.7547C152.287 94.8318 151.825 94.9089 151.388 95.0374C151.157 95.0888 150.925 95.1659 150.694 95.243C150.463 95.3201 150.231 95.3972 150 95.5C150.231 95.6028 150.463 95.6799 150.694 95.757C150.925 95.8341 151.157 95.8855 151.388 95.9626C151.85 96.0654 152.313 96.1682 152.75 96.2453C152.981 96.271 153.213 96.2967 153.418 96.3224C154.061 96.3995 154.6 96.9136 154.678 97.5818C154.703 97.8131 154.729 98.0444 154.755 98.25C154.832 98.7126 154.909 99.1752 155.037 99.6122C155.089 99.8435 155.166 100.075 155.243 100.306C155.32 100.537 155.397 100.769 155.5 101C155.603 100.769 155.68 100.537 155.757 100.306C155.834 100.075 155.886 99.8435 155.963 99.6122C156.065 99.1495 156.168 98.6869 156.245 98.25C156.271 98.0187 156.297 97.7874 156.322 97.5818C156.4 96.9393 156.914 96.3995 157.582 96.3224C157.813 96.2967 158.044 96.271 158.25 96.2453C158.713 96.1682 159.175 96.0911 159.612 95.9626C159.843 95.9112 160.075 95.8341 160.306 95.757C160.537 95.6799 160.769 95.6028 161 95.5C160.769 95.3972 160.537 95.3201 160.306 95.243Z" fill="url(#paint1_linear_32_1028)"/>
<circle cx="81" cy="60" r="50" fill="url(#paint2_linear_32_1028)"/>
<path d="M102.52 63.6136H58.8405C57.3738 63.6136 56.1738 62.4136 56.1738 60.9469C56.1738 59.4803 57.3738 58.2803 58.8405 58.2803H102.52C103.987 58.2803 105.187 59.4803 105.187 60.9469C105.174 62.4136 103.987 63.6136 102.52 63.6136ZM58.8405 59.5603C58.0805 59.5603 57.4538 60.1869 57.4538 60.9469C57.4538 61.7069 58.0805 62.3336 58.8405 62.3336H102.52C103.28 62.3336 103.907 61.7069 103.907 60.9469C103.907 60.1869 103.28 59.5603 102.52 59.5603H58.8405Z" fill="white"/>
<path d="M102.52 86.4134H58.8405C57.3738 86.4134 56.1738 85.2134 56.1738 83.7467C56.1738 82.2801 57.3738 81.0801 58.8405 81.0801H102.52C103.987 81.0801 105.187 82.2801 105.187 83.7467C105.187 85.2134 103.987 86.4134 102.52 86.4134ZM58.8405 82.3734C58.0805 82.3734 57.4538 83.0001 57.4538 83.7601C57.4538 84.5201 58.0805 85.1467 58.8405 85.1467H102.52C103.28 85.1467 103.907 84.5201 103.907 83.7601C103.907 83.0001 103.28 82.3734 102.52 82.3734H58.8405Z" fill="white"/>
<path d="M70.1868 67.1202H59.4134C59.0534 67.1202 58.7734 66.8402 58.7734 66.4802V62.9735C58.7734 62.6135 59.0534 62.3335 59.4134 62.3335C59.7734 62.3335 60.0534 62.6135 60.0534 62.9735V65.8402H69.5468V62.9735C69.5468 62.6135 69.8268 62.3335 70.1868 62.3335C70.5468 62.3335 70.8268 62.6135 70.8268 62.9735V66.4802C70.8268 66.8402 70.5468 67.1202 70.1868 67.1202V67.1202Z" fill="white"/>
<path d="M68.1068 82.3737C67.7468 82.3737 67.4668 82.0937 67.4668 81.7337V66.4803C67.4668 66.1203 67.7468 65.8403 68.1068 65.8403C68.4668 65.8403 68.7468 66.1203 68.7468 66.4803V81.7337C68.7468 82.0803 68.4668 82.3737 68.1068 82.3737ZM61.4935 82.3737C61.1335 82.3737 60.8535 82.0937 60.8535 81.7337V66.4803C60.8535 66.1203 61.1335 65.8403 61.4935 65.8403C61.8535 65.8403 62.1335 66.1203 62.1335 66.4803V81.7337C62.1335 82.0803 61.8402 82.3737 61.4935 82.3737Z" fill="white"/>
<path d="M86.0667 67.1202H75.2933C74.9333 67.1202 74.6533 66.8402 74.6533 66.4802V62.9735C74.6533 62.6135 74.9333 62.3335 75.2933 62.3335C75.6533 62.3335 75.9333 62.6135 75.9333 62.9735V65.8402H85.4267V62.9735C85.4267 62.6135 85.7067 62.3335 86.0667 62.3335C86.4267 62.3335 86.7067 62.6135 86.7067 62.9735V66.4802C86.7067 66.8402 86.4133 67.1202 86.0667 67.1202Z" fill="white"/>
<path d="M83.9864 82.3737C83.6264 82.3737 83.3464 82.0937 83.3464 81.7337V66.4803C83.3464 66.1203 83.6264 65.8403 83.9864 65.8403C84.3464 65.8403 84.6264 66.1203 84.6264 66.4803V81.7337C84.6264 82.0803 84.3331 82.3737 83.9864 82.3737ZM77.3597 82.3737C76.9997 82.3737 76.7197 82.0937 76.7197 81.7337V66.4803C76.7197 66.1203 76.9997 65.8403 77.3597 65.8403C77.7197 65.8403 77.9997 66.1203 77.9997 66.4803V81.7337C77.9997 82.0803 77.7197 82.3737 77.3597 82.3737Z" fill="white"/>
<path d="M101.947 67.1202H91.1732C90.8132 67.1202 90.5332 66.8402 90.5332 66.4802V62.9735C90.5332 62.6135 90.8132 62.3335 91.1732 62.3335C91.5332 62.3335 91.8132 62.6135 91.8132 62.9735V65.8402H101.307V62.9735C101.307 62.6135 101.587 62.3335 101.947 62.3335C102.307 62.3335 102.587 62.6135 102.587 62.9735V66.4802C102.587 66.8402 102.293 67.1202 101.947 67.1202Z" fill="white"/>
<path d="M99.8673 82.3737C99.5073 82.3737 99.2273 82.0937 99.2273 81.7337V66.4803C99.2273 66.1203 99.5073 65.8403 99.8673 65.8403C100.227 65.8403 100.507 66.1203 100.507 66.4803V81.7337C100.507 82.0803 100.214 82.3737 99.8673 82.3737ZM93.2406 82.3737C92.8806 82.3737 92.6006 82.0937 92.6006 81.7337V66.4803C92.6006 66.1203 92.8806 65.8403 93.2406 65.8403C93.6006 65.8403 93.8806 66.1203 93.8806 66.4803V81.7337C93.8806 82.0803 93.6006 82.3737 93.2406 82.3737Z" fill="white"/>
<path d="M107.093 57.1734C106.64 57.1734 106.187 57.0534 105.76 56.8134L103.24 55.3601C102.933 55.1867 102.827 54.7867 103 54.4801C103.173 54.1734 103.573 54.0667 103.88 54.2401L106.4 55.6934C107.067 56.0801 107.907 55.8534 108.293 55.1867C108.48 54.8667 108.52 54.4934 108.427 54.1334C108.333 53.7734 108.107 53.4801 107.787 53.2934L106.813 52.7334C106.507 52.5601 106.4 52.1601 106.573 51.8534C106.747 51.5467 107.147 51.4401 107.453 51.6134L108.427 52.1734C109.04 52.5334 109.48 53.1067 109.667 53.7867C109.853 54.4667 109.76 55.2001 109.4 55.8134C108.907 56.6934 108.013 57.1734 107.093 57.1734V57.1734ZM54.2668 57.1734C54.0401 57.1734 53.8001 57.1467 53.5734 57.0801C52.8801 56.8934 52.3068 56.4534 51.9601 55.8401C51.6001 55.2267 51.5068 54.5067 51.6934 53.8134C51.8801 53.1201 52.3201 52.5467 52.9334 52.2001L79.2134 37.0267C80.0668 36.5334 81.2934 36.5334 82.1468 37.0267L89.3734 41.2001C89.6801 41.3734 89.7868 41.7734 89.6134 42.0801C89.4401 42.3867 89.0401 42.4934 88.7334 42.3201L81.4934 38.1334C81.0401 37.8801 80.2934 37.8801 79.8401 38.1334L53.5601 53.3067C53.2401 53.4934 53.0134 53.7867 52.9201 54.1467C52.8268 54.5067 52.8668 54.8801 53.0534 55.2001C53.2401 55.5201 53.5334 55.7467 53.8934 55.8401C54.2534 55.9334 54.6268 55.8934 54.9468 55.7067L80.3468 41.0401C80.5468 40.9201 80.7868 40.9201 80.9868 41.0401L88.8668 45.5867C89.1734 45.7601 89.2801 46.1601 89.1068 46.4667C88.9334 46.7734 88.5334 46.8801 88.2268 46.7067L80.6668 42.3467L55.5868 56.8134C55.1868 57.0534 54.7334 57.1734 54.2668 57.1734V57.1734Z" fill="white"/>
<path d="M100.2 59.5599H61.1332C60.7732 59.5599 60.4932 59.2799 60.4932 58.9199V52.8666C60.4932 52.5066 60.7732 52.2266 61.1332 52.2266C61.4932 52.2266 61.7732 52.5066 61.7732 52.8666V58.2799H99.5598V55.6932C99.5598 55.3332 99.8398 55.0532 100.2 55.0532C100.56 55.0532 100.84 55.3332 100.84 55.6932V58.9199C100.84 59.2799 100.56 59.5599 100.2 59.5599V59.5599Z" fill="white"/>
<path d="M99.1739 56.3868C92.9339 56.3868 87.8672 51.3201 87.8672 45.0801C87.8672 38.8401 92.9339 33.7734 99.1739 33.7734C105.414 33.7734 110.481 38.8401 110.481 45.0801C110.481 51.3201 105.401 56.3868 99.1739 56.3868ZM99.1739 35.0668C93.6405 35.0668 89.1472 39.5601 89.1472 45.0934C89.1472 50.6268 93.6405 55.1201 99.1739 55.1201C104.707 55.1201 109.201 50.6268 109.201 45.0934C109.201 39.5601 104.694 35.0668 99.1739 35.0668Z" fill="white"/>
<path d="M105.214 54.5067C104.854 54.5067 104.574 54.2267 104.574 53.8667V50.6534C104.574 48.6934 103.494 46.88 101.774 45.92C101.467 45.7467 101.347 45.36 101.52 45.0534C101.694 44.7467 102.08 44.6267 102.387 44.8C104.52 45.9867 105.854 48.2267 105.854 50.6534V53.8667C105.854 54.2267 105.56 54.5067 105.214 54.5067ZM93.1205 54.5067C92.7605 54.5067 92.4805 54.2267 92.4805 53.8667V50.6534C92.4805 48.2267 93.8005 45.9867 95.9471 44.8C96.2538 44.6267 96.6405 44.7467 96.8138 45.0534C96.9871 45.36 96.8671 45.7467 96.5605 45.92C94.8271 46.88 93.7605 48.6934 93.7605 50.6534V53.8667C93.7605 54.2267 93.4805 54.5067 93.1205 54.5067Z" fill="white"/>
<path d="M99.1739 47.0402C96.2939 47.0402 93.9473 44.6936 93.9473 41.8136C93.9473 38.9336 96.2939 36.5869 99.1739 36.5869C102.054 36.5869 104.401 38.9336 104.401 41.8136C104.401 44.6936 102.054 47.0402 99.1739 47.0402ZM99.1739 37.8669C97.0006 37.8669 95.2273 39.6402 95.2273 41.8136C95.2273 43.9869 97.0006 45.7602 99.1739 45.7602C101.347 45.7602 103.121 43.9869 103.121 41.8136C103.121 39.6402 101.347 37.8669 99.1739 37.8669V37.8669Z" fill="white"/>
<path d="M13.1178 13.674C12.8301 13.5781 12.5425 13.5014 12.2356 13.4247C11.6603 13.2712 11.0658 13.1562 10.4904 13.0795C10.2027 13.0411 9.91507 13.0027 9.6274 12.9644C8.80274 12.8685 8.13151 12.2164 8.03562 11.3726C7.99726 11.0849 7.9589 10.7973 7.92055 10.5096C7.82466 9.93425 7.70959 9.33973 7.57534 8.76438C7.49863 8.47671 7.42192 8.18904 7.32603 7.88219C7.23014 7.59452 7.13425 7.30685 7 7C6.86575 7.28767 6.76986 7.57534 6.67397 7.88219C6.57808 8.16986 6.50137 8.45753 6.42466 8.76438C6.27123 9.33973 6.15617 9.93425 6.07945 10.5096C6.0411 10.7973 6.00275 11.0849 5.96439 11.3726C5.8685 12.1973 5.21644 12.8685 4.3726 12.9644C4.08493 13.0027 3.79726 13.0411 3.50959 13.0795C2.93424 13.1753 2.33973 13.2904 1.76439 13.4247C1.47671 13.5014 1.18905 13.5781 0.882199 13.674C0.594528 13.7699 0.306849 13.8658 0 14C0.287671 14.1342 0.575349 14.2301 0.882199 14.326C1.16987 14.4219 1.45754 14.4986 1.76439 14.5753C2.33973 14.7288 2.93424 14.8438 3.50959 14.9205C3.79726 14.9589 4.08493 14.9973 4.3726 15.0356C5.19726 15.1315 5.8685 15.7836 5.96439 16.6274C6.00275 16.9151 6.0411 17.2027 6.07945 17.4904C6.17534 18.0658 6.29041 18.6603 6.42466 19.2356C6.50137 19.5233 6.57808 19.811 6.67397 20.1178C6.76986 20.4055 6.86575 20.6932 7 21C7.13425 20.7123 7.23014 20.4247 7.32603 20.1178C7.42192 19.8301 7.49863 19.5425 7.57534 19.2356C7.72877 18.6603 7.84383 18.0658 7.92055 17.4904C7.9589 17.2027 7.99726 16.9151 8.03562 16.6274C8.13151 15.8027 8.78356 15.1315 9.6274 15.0356C9.91507 14.9973 10.2027 14.9589 10.4904 14.9205C11.0658 14.8247 11.6603 14.7096 12.2356 14.5753C12.5233 14.4986 12.811 14.4219 13.1178 14.326C13.4055 14.2301 13.6932 14.1342 14 14C13.6932 13.8658 13.4055 13.7699 13.1178 13.674Z" fill="url(#paint3_linear_32_1028)"/>
<path d="M23.3061 5.24299C23.0748 5.16589 22.8435 5.11449 22.6122 5.03738C22.1495 4.93458 21.6869 4.83178 21.25 4.75467C21.0187 4.72897 20.7874 4.70327 20.5818 4.67757C19.9393 4.60047 19.3995 4.08645 19.3224 3.41822C19.2967 3.18692 19.271 2.95561 19.2453 2.75C19.1682 2.28738 19.0911 1.82477 18.9626 1.38785C18.9112 1.15654 18.8341 0.925234 18.757 0.693925C18.6799 0.462617 18.6028 0.231308 18.5 0C18.3972 0.231308 18.3201 0.462617 18.243 0.693925C18.1659 0.925234 18.1145 1.15654 18.0374 1.38785C17.9346 1.85047 17.8318 2.31308 17.7547 2.75C17.729 2.98131 17.7033 3.21262 17.6776 3.41822C17.6005 4.06075 17.0864 4.60047 16.4182 4.67757C16.1869 4.70327 15.9556 4.72897 15.75 4.75467C15.2874 4.83178 14.8248 4.90888 14.3879 5.03738C14.1565 5.08879 13.9252 5.16589 13.6939 5.24299C13.4626 5.32009 13.2313 5.3972 13 5.5C13.2313 5.6028 13.4626 5.67991 13.6939 5.75701C13.9252 5.83411 14.1565 5.88551 14.3879 5.96262C14.8505 6.06542 15.3131 6.16822 15.75 6.24533C15.9813 6.27103 16.2126 6.29673 16.4182 6.32243C17.0607 6.39953 17.6005 6.91355 17.6776 7.58178C17.7033 7.81308 17.729 8.04439 17.7547 8.25C17.8318 8.71262 17.9089 9.17523 18.0374 9.61215C18.0888 9.84346 18.1659 10.0748 18.243 10.3061C18.3201 10.5374 18.3972 10.7687 18.5 11C18.6028 10.7687 18.6799 10.5374 18.757 10.3061C18.8341 10.0748 18.8855 9.84346 18.9626 9.61215C19.0654 9.14953 19.1682 8.68692 19.2453 8.25C19.271 8.01869 19.2967 7.78738 19.3224 7.58178C19.3995 6.93925 19.9136 6.39953 20.5818 6.32243C20.8131 6.29673 21.0444 6.27103 21.25 6.24533C21.7126 6.16822 22.1752 6.09112 22.6122 5.96262C22.8435 5.91122 23.0748 5.83411 23.3061 5.75701C23.5374 5.67991 23.7687 5.6028 24 5.5C23.7687 5.3972 23.5374 5.32009 23.3061 5.24299Z" fill="url(#paint4_linear_32_1028)"/>
<defs>
<linearGradient id="paint0_linear_32_1028" x1="144" y1="97" x2="144" y2="111" gradientUnits="userSpaceOnUse">
<stop stop-color="#6B99CB"/>
<stop offset="1" stop-color="#161966"/>
</linearGradient>
<linearGradient id="paint1_linear_32_1028" x1="155.5" y1="90" x2="155.5" y2="101" gradientUnits="userSpaceOnUse">
<stop stop-color="#6B99CB"/>
<stop offset="1" stop-color="#161966"/>
</linearGradient>
<linearGradient id="paint2_linear_32_1028" x1="81" y1="10" x2="81" y2="110" gradientUnits="userSpaceOnUse">
<stop stop-color="#6B99CB"/>
<stop offset="1" stop-color="#161966"/>
</linearGradient>
<linearGradient id="paint3_linear_32_1028" x1="7" y1="7" x2="7" y2="21" gradientUnits="userSpaceOnUse">
<stop stop-color="#6B99CB"/>
<stop offset="1" stop-color="#161966"/>
</linearGradient>
<linearGradient id="paint4_linear_32_1028" x1="18.5" y1="0" x2="18.5" y2="11" gradientUnits="userSpaceOnUse">
<stop stop-color="#6B99CB"/>
<stop offset="1" stop-color="#161966"/>
</linearGradient>
</defs>
</svg>
