<svg width="182" height="182" viewBox="0 0 182 182" fill="none" xmlns="http://www.w3.org/2000/svg">
<rect x="41" y="41" width="100" height="100" rx="50" stroke="white" stroke-width="2"/>
<path d="M93.0835 80.3334C94.7114 80.651 96.2075 81.4472 97.3803 82.62C98.5531 83.7928 99.3493 85.2889 99.6669 86.9167M93.0835 73.6667C96.4657 74.0425 99.6195 75.557 102.027 77.9618C104.435 80.3665 105.954 83.5184 106.334 86.9001M104.667 100.2V105.2C104.669 105.664 104.574 106.124 104.388 106.549C104.202 106.974 103.929 107.356 103.587 107.67C103.245 107.984 102.841 108.223 102.401 108.371C101.962 108.52 101.496 108.575 101.034 108.533C95.9049 107.976 90.9785 106.224 86.6502 103.417C82.6233 100.858 79.2091 97.4437 76.6502 93.4167C73.8335 89.0688 72.0806 84.1184 71.5335 78.9667C71.4919 78.5059 71.5467 78.0413 71.6944 77.6028C71.8421 77.1642 72.0795 76.7612 72.3915 76.4194C72.7035 76.0777 73.0832 75.8046 73.5065 75.6176C73.9298 75.4306 74.3874 75.3339 74.8502 75.3334H79.8502C80.6591 75.3255 81.4432 75.6119 82.0565 76.1393C82.6698 76.6667 83.0703 77.3992 83.1835 78.2001C83.3946 79.8002 83.786 81.3713 84.3502 82.8834C84.5745 83.48 84.623 84.1283 84.4901 84.7515C84.3571 85.3748 84.0483 85.9469 83.6002 86.4001L81.4835 88.5167C83.8561 92.6893 87.311 96.1442 91.4835 98.5167L93.6002 96.4001C94.0534 95.952 94.6255 95.6432 95.2487 95.5102C95.872 95.3773 96.5203 95.4258 97.1169 95.6501C98.629 96.2143 100.2 96.6057 101.8 96.8167C102.61 96.931 103.349 97.3388 103.878 97.9626C104.406 98.5864 104.687 99.3827 104.667 100.2Z" stroke="white" stroke-width="2" stroke-linecap="round" stroke-linejoin="round"/>
<g filter="url(#filter0_f_3621_2431)">
<circle cx="91" cy="91" r="70" stroke="white" stroke-width="2"/>
</g>
<defs>
<filter id="filter0_f_3621_2431" x="0" y="0" width="182" height="182" filterUnits="userSpaceOnUse" color-interpolation-filters="sRGB">
<feFlood flood-opacity="0" result="BackgroundImageFix"/>
<feBlend mode="normal" in="SourceGraphic" in2="BackgroundImageFix" result="shape"/>
<feGaussianBlur stdDeviation="10" result="effect1_foregroundBlur_3621_2431"/>
</filter>
</defs>
</svg>
