<svg width="170" height="22" viewBox="0 0 170 22" fill="none" xmlns="http://www.w3.org/2000/svg">
<path d="M12.6466 7L5.12699 14.3333L1.709 11" stroke="#00B0B9" stroke-width="1.2" stroke-linecap="round" stroke-linejoin="round"/>
<path d="M21.9135 16V4.8H25.8335C26.7081 4.8 27.4335 4.94933 28.0095 5.248C28.5855 5.536 29.0121 5.936 29.2895 6.448C29.5775 6.94933 29.7215 7.52 29.7215 8.16C29.7215 8.768 29.5828 9.328 29.3055 9.84C29.0388 10.3413 28.6175 10.7413 28.0415 11.04C27.4655 11.3387 26.7295 11.488 25.8335 11.488H23.6095V16H21.9135ZM23.6095 10.096H25.7535C26.5535 10.096 27.1241 9.92533 27.4655 9.584C27.8175 9.232 27.9935 8.75733 27.9935 8.16C27.9935 7.54133 27.8175 7.06133 27.4655 6.72C27.1241 6.368 26.5535 6.192 25.7535 6.192H23.6095V10.096ZM31.3338 16V8.064H32.8538L32.9978 9.568C33.2752 9.04533 33.6592 8.63467 34.1498 8.336C34.6512 8.02667 35.2538 7.872 35.9578 7.872V9.648H35.4938C35.0245 9.648 34.6032 9.728 34.2298 9.888C33.8672 10.0373 33.5738 10.2987 33.3498 10.672C33.1365 11.0347 33.0298 11.5413 33.0298 12.192V16H31.3338ZM40.9052 16.192C40.1479 16.192 39.4652 16.0213 38.8572 15.68C38.2599 15.328 37.7852 14.8427 37.4332 14.224C37.0812 13.5947 36.9052 12.864 36.9052 12.032C36.9052 11.2 37.0812 10.4747 37.4332 9.856C37.7959 9.22667 38.2812 8.74133 38.8892 8.4C39.4972 8.048 40.1745 7.872 40.9212 7.872C41.6785 7.872 42.3559 8.048 42.9532 8.4C43.5612 8.74133 44.0412 9.22667 44.3932 9.856C44.7559 10.4747 44.9372 11.2 44.9372 12.032C44.9372 12.864 44.7559 13.5947 44.3932 14.224C44.0412 14.8427 43.5612 15.328 42.9532 15.68C42.3452 16.0213 41.6625 16.192 40.9052 16.192ZM40.9052 14.736C41.3105 14.736 41.6839 14.6347 42.0252 14.432C42.3772 14.2293 42.6599 13.9307 42.8732 13.536C43.0865 13.1307 43.1932 12.6293 43.1932 12.032C43.1932 11.4347 43.0865 10.9387 42.8732 10.544C42.6705 10.1387 42.3932 9.83467 42.0412 9.632C41.6999 9.42933 41.3265 9.328 40.9212 9.328C40.5159 9.328 40.1372 9.42933 39.7852 9.632C39.4439 9.83467 39.1665 10.1387 38.9532 10.544C38.7399 10.9387 38.6332 11.4347 38.6332 12.032C38.6332 12.6293 38.7399 13.1307 38.9532 13.536C39.1665 13.9307 39.4439 14.2293 39.7852 14.432C40.1265 14.6347 40.4999 14.736 40.9052 14.736ZM46.7713 16V8.064H48.2753L48.4193 9.184C48.6753 8.77867 49.0113 8.45867 49.4273 8.224C49.854 7.98933 50.3447 7.872 50.8993 7.872C52.158 7.872 53.0327 8.368 53.5233 9.36C53.8113 8.90133 54.1953 8.53867 54.6753 8.272C55.166 8.00533 55.694 7.872 56.2593 7.872C57.2513 7.872 58.03 8.17067 58.5953 8.768C59.1607 9.36533 59.4433 10.256 59.4433 11.44V16H57.7473V11.616C57.7473 10.08 57.1607 9.312 55.9873 9.312C55.39 9.312 54.8993 9.536 54.5153 9.984C54.142 10.432 53.9553 11.072 53.9553 11.904V16H52.2593V11.616C52.2593 10.08 51.6673 9.312 50.4833 9.312C49.8967 9.312 49.4113 9.536 49.0273 9.984C48.654 10.432 48.4673 11.072 48.4673 11.904V16H46.7713ZM65.1396 16.192C64.3822 16.192 63.6996 16.0213 63.0916 15.68C62.4942 15.328 62.0196 14.8427 61.6676 14.224C61.3156 13.5947 61.1396 12.864 61.1396 12.032C61.1396 11.2 61.3156 10.4747 61.6676 9.856C62.0302 9.22667 62.5156 8.74133 63.1236 8.4C63.7316 8.048 64.4089 7.872 65.1556 7.872C65.9129 7.872 66.5902 8.048 67.1876 8.4C67.7956 8.74133 68.2756 9.22667 68.6276 9.856C68.9902 10.4747 69.1716 11.2 69.1716 12.032C69.1716 12.864 68.9902 13.5947 68.6276 14.224C68.2756 14.8427 67.7956 15.328 67.1876 15.68C66.5796 16.0213 65.8969 16.192 65.1396 16.192ZM65.1396 14.736C65.5449 14.736 65.9182 14.6347 66.2596 14.432C66.6116 14.2293 66.8942 13.9307 67.1076 13.536C67.3209 13.1307 67.4276 12.6293 67.4276 12.032C67.4276 11.4347 67.3209 10.9387 67.1076 10.544C66.9049 10.1387 66.6276 9.83467 66.2756 9.632C65.9342 9.42933 65.5609 9.328 65.1556 9.328C64.7502 9.328 64.3716 9.42933 64.0196 9.632C63.6782 9.83467 63.4009 10.1387 63.1876 10.544C62.9742 10.9387 62.8676 11.4347 62.8676 12.032C62.8676 12.6293 62.9742 13.1307 63.1876 13.536C63.4009 13.9307 63.6782 14.2293 64.0196 14.432C64.3609 14.6347 64.7342 14.736 65.1396 14.736ZM74.7657 16.192C73.987 16.192 73.2884 16.016 72.6697 15.664C72.0617 15.312 71.5817 14.8267 71.2297 14.208C70.8884 13.5787 70.7177 12.8533 70.7177 12.032C70.7177 11.2107 70.8884 10.4907 71.2297 9.872C71.5817 9.24267 72.0617 8.752 72.6697 8.4C73.2884 8.048 73.987 7.872 74.7657 7.872C75.747 7.872 76.5684 8.128 77.2297 8.64C77.9017 9.152 78.3337 9.84533 78.5257 10.72H76.7497C76.643 10.2827 76.4084 9.94133 76.0457 9.696C75.683 9.45067 75.2564 9.328 74.7657 9.328C74.3497 9.328 73.9657 9.43467 73.6137 9.648C73.2617 9.85067 72.979 10.1547 72.7657 10.56C72.5524 10.9547 72.4457 11.4453 72.4457 12.032C72.4457 12.6187 72.5524 13.1147 72.7657 13.52C72.979 13.9147 73.2617 14.2187 73.6137 14.432C73.9657 14.6453 74.3497 14.752 74.7657 14.752C75.2564 14.752 75.683 14.6293 76.0457 14.384C76.4084 14.1387 76.643 13.792 76.7497 13.344H78.5257C78.3444 14.1973 77.9177 14.8853 77.2457 15.408C76.5737 15.9307 75.747 16.192 74.7657 16.192ZM84.0771 16.192C83.3197 16.192 82.6371 16.0213 82.0291 15.68C81.4317 15.328 80.9571 14.8427 80.6051 14.224C80.2531 13.5947 80.0771 12.864 80.0771 12.032C80.0771 11.2 80.2531 10.4747 80.6051 9.856C80.9677 9.22667 81.4531 8.74133 82.0611 8.4C82.6691 8.048 83.3464 7.872 84.0931 7.872C84.8504 7.872 85.5277 8.048 86.1251 8.4C86.7331 8.74133 87.2131 9.22667 87.5651 9.856C87.9277 10.4747 88.1091 11.2 88.1091 12.032C88.1091 12.864 87.9277 13.5947 87.5651 14.224C87.2131 14.8427 86.7331 15.328 86.1251 15.68C85.5171 16.0213 84.8344 16.192 84.0771 16.192ZM84.0771 14.736C84.4824 14.736 84.8557 14.6347 85.1971 14.432C85.5491 14.2293 85.8317 13.9307 86.0451 13.536C86.2584 13.1307 86.3651 12.6293 86.3651 12.032C86.3651 11.4347 86.2584 10.9387 86.0451 10.544C85.8424 10.1387 85.5651 9.83467 85.2131 9.632C84.8717 9.42933 84.4984 9.328 84.0931 9.328C83.6877 9.328 83.3091 9.42933 82.9571 9.632C82.6157 9.83467 82.3384 10.1387 82.1251 10.544C81.9117 10.9387 81.8051 11.4347 81.8051 12.032C81.8051 12.6293 81.9117 13.1307 82.1251 13.536C82.3384 13.9307 82.6157 14.2293 82.9571 14.432C83.2984 14.6347 83.6717 14.736 84.0771 14.736ZM93.5592 16.192C92.7912 16.192 92.1139 16.0107 91.5272 15.648C90.9405 15.2853 90.4819 14.7893 90.1512 14.16C89.8205 13.5307 89.6552 12.816 89.6552 12.016C89.6552 11.216 89.8205 10.5067 90.1512 9.888C90.4819 9.25867 90.9405 8.768 91.5272 8.416C92.1245 8.05333 92.8072 7.872 93.5752 7.872C94.2045 7.872 94.7539 7.99467 95.2232 8.24C95.7032 8.48533 96.0765 8.832 96.3432 9.28V4.48H98.0392V16H96.5192L96.3432 14.768C96.0872 15.1413 95.7352 15.472 95.2872 15.76C94.8392 16.048 94.2632 16.192 93.5592 16.192ZM93.8632 14.72C94.5885 14.72 95.1805 14.4693 95.6392 13.968C96.1085 13.4667 96.3432 12.8213 96.3432 12.032C96.3432 11.232 96.1085 10.5867 95.6392 10.096C95.1805 9.59467 94.5885 9.344 93.8632 9.344C93.1379 9.344 92.5405 9.59467 92.0712 10.096C91.6019 10.5867 91.3672 11.232 91.3672 12.032C91.3672 12.5547 91.4739 13.0187 91.6872 13.424C91.9005 13.8293 92.1939 14.1493 92.5672 14.384C92.9512 14.608 93.3832 14.72 93.8632 14.72ZM103.89 16.192C103.111 16.192 102.418 16.0213 101.81 15.68C101.212 15.328 100.743 14.8427 100.402 14.224C100.06 13.6053 99.8896 12.8853 99.8896 12.064C99.8896 11.232 100.055 10.5013 100.386 9.872C100.727 9.24267 101.196 8.752 101.794 8.4C102.402 8.048 103.106 7.872 103.906 7.872C104.684 7.872 105.362 8.048 105.938 8.4C106.514 8.74133 106.962 9.2 107.282 9.776C107.602 10.352 107.762 10.9867 107.762 11.68C107.762 11.7867 107.756 11.904 107.746 12.032C107.746 12.1493 107.74 12.2827 107.73 12.432H101.554C101.607 13.2 101.858 13.7867 102.306 14.192C102.764 14.5867 103.292 14.784 103.89 14.784C104.37 14.784 104.77 14.6773 105.09 14.464C105.42 14.24 105.666 13.9413 105.826 13.568H107.522C107.308 14.3147 106.882 14.9387 106.242 15.44C105.612 15.9413 104.828 16.192 103.89 16.192ZM103.89 9.264C103.324 9.264 102.823 9.43467 102.386 9.776C101.948 10.1067 101.682 10.608 101.586 11.28H106.066C106.034 10.6613 105.815 10.1707 105.41 9.808C105.004 9.44533 104.498 9.264 103.89 9.264ZM116.241 16.192C115.569 16.192 115.014 16.08 114.577 15.856C114.139 15.632 113.814 15.3387 113.601 14.976C113.387 14.6027 113.281 14.1973 113.281 13.76C113.281 12.992 113.579 12.384 114.177 11.936C114.774 11.488 115.627 11.264 116.737 11.264H118.817V11.12C118.817 10.5013 118.646 10.0373 118.305 9.728C117.974 9.41867 117.542 9.264 117.009 9.264C116.539 9.264 116.129 9.38133 115.777 9.616C115.435 9.84 115.227 10.176 115.153 10.624H113.457C113.51 10.048 113.702 9.55733 114.033 9.152C114.374 8.736 114.801 8.42133 115.313 8.208C115.835 7.984 116.406 7.872 117.025 7.872C118.134 7.872 118.993 8.16533 119.601 8.752C120.209 9.328 120.513 10.1173 120.513 11.12V16H119.041L118.897 14.64C118.673 15.0773 118.347 15.4453 117.921 15.744C117.494 16.0427 116.934 16.192 116.241 16.192ZM116.577 14.816C117.035 14.816 117.419 14.7093 117.729 14.496C118.049 14.272 118.294 13.9787 118.465 13.616C118.646 13.2533 118.758 12.8533 118.801 12.416H116.913C116.241 12.416 115.761 12.5333 115.473 12.768C115.195 13.0027 115.057 13.296 115.057 13.648C115.057 14.0107 115.19 14.2987 115.457 14.512C115.734 14.7147 116.107 14.816 116.577 14.816ZM122.49 19.52V8.064H124.01L124.186 9.296C124.442 8.92267 124.794 8.592 125.242 8.304C125.69 8.016 126.266 7.872 126.97 7.872C127.738 7.872 128.415 8.05333 129.002 8.416C129.589 8.77867 130.047 9.27467 130.378 9.904C130.719 10.5333 130.89 11.248 130.89 12.048C130.89 12.848 130.719 13.5627 130.378 14.192C130.047 14.8107 129.589 15.3013 129.002 15.664C128.415 16.016 127.733 16.192 126.954 16.192C126.335 16.192 125.786 16.0693 125.306 15.824C124.837 15.5787 124.463 15.232 124.186 14.784V19.52H122.49ZM126.666 14.72C127.391 14.72 127.989 14.4747 128.458 13.984C128.927 13.4827 129.162 12.832 129.162 12.032C129.162 11.5093 129.055 11.0453 128.842 10.64C128.629 10.2347 128.335 9.92 127.962 9.696C127.589 9.46133 127.157 9.344 126.666 9.344C125.941 9.344 125.343 9.59467 124.874 10.096C124.415 10.5973 124.186 11.2427 124.186 12.032C124.186 12.832 124.415 13.4827 124.874 13.984C125.343 14.4747 125.941 14.72 126.666 14.72ZM132.724 19.52V8.064H134.244L134.42 9.296C134.676 8.92267 135.028 8.592 135.476 8.304C135.924 8.016 136.5 7.872 137.204 7.872C137.972 7.872 138.65 8.05333 139.236 8.416C139.823 8.77867 140.282 9.27467 140.612 9.904C140.954 10.5333 141.124 11.248 141.124 12.048C141.124 12.848 140.954 13.5627 140.612 14.192C140.282 14.8107 139.823 15.3013 139.236 15.664C138.65 16.016 137.967 16.192 137.188 16.192C136.57 16.192 136.02 16.0693 135.54 15.824C135.071 15.5787 134.698 15.232 134.42 14.784V19.52H132.724ZM136.9 14.72C137.626 14.72 138.223 14.4747 138.692 13.984C139.162 13.4827 139.396 12.832 139.396 12.032C139.396 11.5093 139.29 11.0453 139.076 10.64C138.863 10.2347 138.57 9.92 138.196 9.696C137.823 9.46133 137.391 9.344 136.9 9.344C136.175 9.344 135.578 9.59467 135.108 10.096C134.65 10.5973 134.42 11.2427 134.42 12.032C134.42 12.832 134.65 13.4827 135.108 13.984C135.578 14.4747 136.175 14.72 136.9 14.72ZM142.959 16V4.48H144.655V16H142.959ZM147.763 6.56C147.443 6.56 147.176 6.464 146.963 6.272C146.76 6.06933 146.659 5.81867 146.659 5.52C146.659 5.22133 146.76 4.976 146.963 4.784C147.176 4.58133 147.443 4.48 147.763 4.48C148.083 4.48 148.344 4.58133 148.547 4.784C148.76 4.976 148.867 5.22133 148.867 5.52C148.867 5.81867 148.76 6.06933 148.547 6.272C148.344 6.464 148.083 6.56 147.763 6.56ZM146.915 16V8.064H148.611V16H146.915ZM154.561 16.192C153.783 16.192 153.089 16.0213 152.481 15.68C151.884 15.328 151.415 14.8427 151.073 14.224C150.732 13.6053 150.561 12.8853 150.561 12.064C150.561 11.232 150.727 10.5013 151.057 9.872C151.399 9.24267 151.868 8.752 152.465 8.4C153.073 8.048 153.777 7.872 154.577 7.872C155.356 7.872 156.033 8.048 156.609 8.4C157.185 8.74133 157.633 9.2 157.953 9.776C158.273 10.352 158.433 10.9867 158.433 11.68C158.433 11.7867 158.428 11.904 158.417 12.032C158.417 12.1493 158.412 12.2827 158.401 12.432H152.225C152.279 13.2 152.529 13.7867 152.977 14.192C153.436 14.5867 153.964 14.784 154.561 14.784C155.041 14.784 155.441 14.6773 155.761 14.464C156.092 14.24 156.337 13.9413 156.497 13.568H158.193C157.98 14.3147 157.553 14.9387 156.913 15.44C156.284 15.9413 155.5 16.192 154.561 16.192ZM154.561 9.264C153.996 9.264 153.495 9.43467 153.057 9.776C152.62 10.1067 152.353 10.608 152.257 11.28H156.737C156.705 10.6613 156.487 10.1707 156.081 9.808C155.676 9.44533 155.169 9.264 154.561 9.264ZM163.809 16.192C163.041 16.192 162.364 16.0107 161.777 15.648C161.191 15.2853 160.732 14.7893 160.401 14.16C160.071 13.5307 159.905 12.816 159.905 12.016C159.905 11.216 160.071 10.5067 160.401 9.888C160.732 9.25867 161.191 8.768 161.777 8.416C162.375 8.05333 163.057 7.872 163.825 7.872C164.455 7.872 165.004 7.99467 165.473 8.24C165.953 8.48533 166.327 8.832 166.593 9.28V4.48H168.289V16H166.769L166.593 14.768C166.337 15.1413 165.985 15.472 165.537 15.76C165.089 16.048 164.513 16.192 163.809 16.192ZM164.113 14.72C164.839 14.72 165.431 14.4693 165.889 13.968C166.359 13.4667 166.593 12.8213 166.593 12.032C166.593 11.232 166.359 10.5867 165.889 10.096C165.431 9.59467 164.839 9.344 164.113 9.344C163.388 9.344 162.791 9.59467 162.321 10.096C161.852 10.5867 161.617 11.232 161.617 12.032C161.617 12.5547 161.724 13.0187 161.937 13.424C162.151 13.8293 162.444 14.1493 162.817 14.384C163.201 14.608 163.633 14.72 164.113 14.72Z" fill="#00B0B9"/>
</svg>
