<svg width="182" height="182" viewBox="0 0 182 182" fill="none" xmlns="http://www.w3.org/2000/svg">
<rect x="41" y="41" width="100" height="100" rx="50" stroke="white" stroke-width="2"/>
<path d="M104.333 91V107.667H77.6667V91" stroke="white" stroke-width="2" stroke-linecap="round" stroke-linejoin="round"/>
<path d="M107.667 82.6667H74.3333V91.0001H107.667V82.6667Z" stroke="white" stroke-width="2" stroke-linecap="round" stroke-linejoin="round"/>
<path d="M91 107.667V82.6667" stroke="white" stroke-width="2" stroke-linecap="round" stroke-linejoin="round"/>
<path d="M90.9999 82.6666H83.4999C82.3949 82.6666 81.335 82.2276 80.5536 81.4462C79.7722 80.6648 79.3333 79.605 79.3333 78.4999C79.3333 77.3948 79.7722 76.335 80.5536 75.5536C81.335 74.7722 82.3949 74.3333 83.4999 74.3333C89.3333 74.3333 90.9999 82.6666 90.9999 82.6666Z" stroke="white" stroke-width="2" stroke-linecap="round" stroke-linejoin="round"/>
<path d="M91 82.6666H98.5C99.6051 82.6666 100.665 82.2276 101.446 81.4462C102.228 80.6648 102.667 79.605 102.667 78.4999C102.667 77.3948 102.228 76.335 101.446 75.5536C100.665 74.7722 99.6051 74.3333 98.5 74.3333C92.6667 74.3333 91 82.6666 91 82.6666Z" stroke="white" stroke-width="2" stroke-linecap="round" stroke-linejoin="round"/>
<g filter="url(#filter0_f_3606_2429)">
<circle cx="91" cy="91" r="70" stroke="white" stroke-width="2"/>
</g>
<defs>
<filter id="filter0_f_3606_2429" x="0" y="0" width="182" height="182" filterUnits="userSpaceOnUse" color-interpolation-filters="sRGB">
<feFlood flood-opacity="0" result="BackgroundImageFix"/>
<feBlend mode="normal" in="SourceGraphic" in2="BackgroundImageFix" result="shape"/>
<feGaussianBlur stdDeviation="10" result="effect1_foregroundBlur_3606_2429"/>
</filter>
</defs>
</svg>
