<svg width="81" height="24" viewBox="0 0 81 24" fill="none" xmlns="http://www.w3.org/2000/svg">
<path d="M4.168 5.248C4.776 5.248 5.29867 5.31733 5.736 5.456C6.17867 5.59467 6.52533 5.74133 6.776 5.896C7.032 6.05067 7.184 6.152 7.232 6.2L6.528 7.328C6.448 7.25867 6.30667 7.16 6.104 7.032C5.90133 6.89867 5.648 6.78133 5.344 6.68C5.04 6.57333 4.69333 6.52 4.304 6.52C3.70133 6.52 3.224 6.64267 2.872 6.888C2.52533 7.128 2.352 7.46933 2.352 7.912C2.352 8.21067 2.44267 8.47467 2.624 8.704C2.81067 8.928 3.072 9.13333 3.408 9.32C3.744 9.50667 4.136 9.69867 4.584 9.896C4.952 10.0507 5.312 10.2267 5.664 10.424C6.02133 10.6213 6.344 10.8533 6.632 11.12C6.92533 11.3867 7.15733 11.696 7.328 12.048C7.504 12.4 7.592 12.8053 7.592 13.264C7.592 13.7173 7.49867 14.1253 7.312 14.488C7.13067 14.8507 6.872 15.16 6.536 15.416C6.20533 15.6667 5.81867 15.8587 5.376 15.992C4.93333 16.1253 4.456 16.192 3.944 16.192C3.29867 16.192 2.71467 16.112 2.192 15.952C1.67467 15.792 1.256 15.624 0.936 15.448C0.621333 15.272 0.44 15.1627 0.392 15.12L1.136 13.944C1.2 13.9973 1.31733 14.0773 1.488 14.184C1.65867 14.2853 1.86933 14.392 2.12 14.504C2.37067 14.616 2.65333 14.712 2.968 14.792C3.28267 14.8667 3.61867 14.904 3.976 14.904C4.69067 14.904 5.232 14.744 5.6 14.424C5.968 14.104 6.152 13.6933 6.152 13.192C6.152 12.808 6.03467 12.4773 5.8 12.2C5.56533 11.9227 5.25333 11.6747 4.864 11.456C4.47467 11.2373 4.04533 11.0267 3.576 10.824C3.096 10.6053 2.656 10.3653 2.256 10.104C1.856 9.84267 1.53333 9.53067 1.288 9.168C1.048 8.8 0.928 8.35733 0.928 7.84C0.928 7.328 1.072 6.87733 1.36 6.488C1.65333 6.09867 2.04533 5.79467 2.536 5.576C3.032 5.35733 3.576 5.248 4.168 5.248ZM12.3331 16.192C11.6558 16.192 11.0531 16.04 10.5251 15.736C10.0025 15.432 9.59179 15.0213 9.29313 14.504C8.99446 13.9813 8.84513 13.392 8.84513 12.736C8.84513 12.08 8.99446 11.488 9.29313 10.96C9.59179 10.432 10.0025 10.0133 10.5251 9.704C11.0531 9.39467 11.6558 9.24 12.3331 9.24C13.0051 9.24 13.5998 9.39467 14.1171 9.704C14.6398 10.0133 15.0478 10.432 15.3411 10.96C15.6345 11.488 15.7811 12.08 15.7811 12.736C15.7811 13.392 15.6345 13.9813 15.3411 14.504C15.0478 15.0213 14.6398 15.432 14.1171 15.736C13.5998 16.04 13.0051 16.192 12.3331 16.192ZM12.3331 15C12.7598 15 13.1305 14.9013 13.4451 14.704C13.7651 14.5067 14.0131 14.2373 14.1891 13.896C14.3651 13.5493 14.4531 13.16 14.4531 12.728C14.4531 12.296 14.3651 11.9067 14.1891 11.56C14.0131 11.2133 13.7651 10.9387 13.4451 10.736C13.1305 10.5333 12.7598 10.432 12.3331 10.432C11.9011 10.432 11.5251 10.5333 11.2051 10.736C10.8851 10.9387 10.6345 11.2133 10.4531 11.56C10.2771 11.9067 10.1891 12.296 10.1891 12.728C10.1891 13.16 10.2771 13.5493 10.4531 13.896C10.6345 14.2373 10.8851 14.5067 11.2051 14.704C11.5251 14.9013 11.9011 15 12.3331 15ZM18.6924 16H17.3084V9.432H18.6924V10.568H18.6524C18.679 10.4293 18.7777 10.256 18.9484 10.048C19.119 9.84 19.3537 9.65333 19.6524 9.488C19.951 9.32267 20.3084 9.24 20.7244 9.24C21.0284 9.24 21.295 9.28267 21.5244 9.368C21.759 9.448 21.9244 9.528 22.0204 9.608L21.4524 10.76C21.3777 10.6853 21.247 10.6107 21.0604 10.536C20.8737 10.456 20.6417 10.416 20.3644 10.416C20.0124 10.416 19.711 10.5253 19.4604 10.744C19.2097 10.9627 19.0177 11.2267 18.8844 11.536C18.7564 11.84 18.6924 12.1227 18.6924 12.384V16ZM22.4519 9.432H23.7399V6.736H25.1239V9.432H26.8119V10.624H25.1239V13.872C25.1239 14.256 25.1905 14.5387 25.3239 14.72C25.4625 14.9013 25.6465 14.992 25.8759 14.992C26.0785 14.992 26.2359 14.9547 26.3479 14.88C26.4599 14.8053 26.5265 14.7547 26.5479 14.728L27.0999 15.752C27.0679 15.7787 26.9825 15.8293 26.8439 15.904C26.7052 15.9787 26.5265 16.0453 26.3079 16.104C26.0892 16.1627 25.8332 16.192 25.5399 16.192C25.0279 16.192 24.5985 16.0373 24.2519 15.728C23.9105 15.4133 23.7399 14.9173 23.7399 14.24V10.624H22.4519V9.432ZM28.4608 16V9.432H29.8528V16H28.4608ZM29.1728 7.184C28.9221 7.184 28.7061 7.096 28.5247 6.92C28.3488 6.73867 28.2608 6.52267 28.2608 6.272C28.2608 6.02133 28.3488 5.80533 28.5247 5.624C28.7061 5.44267 28.9221 5.352 29.1728 5.352C29.3381 5.352 29.4901 5.39467 29.6288 5.48C29.7728 5.56533 29.8874 5.67733 29.9728 5.816C30.0581 5.94933 30.1008 6.10133 30.1008 6.272C30.1008 6.52267 30.0101 6.73867 29.8288 6.92C29.6474 7.096 29.4288 7.184 29.1728 7.184ZM35.6526 9.24C36.0846 9.24 36.5033 9.33067 36.9086 9.512C37.3193 9.69333 37.6553 9.98133 37.9166 10.376C38.1833 10.7653 38.3166 11.2747 38.3166 11.904V16H36.9086V12.176C36.9086 11.5253 36.7566 11.0533 36.4526 10.76C36.1486 10.4613 35.7566 10.312 35.2766 10.312C34.962 10.312 34.658 10.4027 34.3646 10.584C34.0766 10.76 33.8393 11.0053 33.6526 11.32C33.466 11.6293 33.3726 11.9813 33.3726 12.376V16H31.9806V9.432H33.3726V10.6C33.4206 10.4187 33.5513 10.2213 33.7646 10.008C33.978 9.79467 34.25 9.61333 34.5806 9.464C34.9113 9.31467 35.2686 9.24 35.6526 9.24ZM43.2729 19.512C42.7555 19.512 42.2862 19.4587 41.8649 19.352C41.4489 19.2453 41.0835 19.0933 40.7689 18.896C40.4595 18.704 40.2115 18.4773 40.0249 18.216L40.9369 17.344C41.0382 17.4827 41.1742 17.6293 41.3449 17.784C41.5209 17.944 41.7582 18.08 42.0569 18.192C42.3555 18.304 42.7449 18.36 43.2249 18.36C43.6942 18.36 44.0915 18.2587 44.4169 18.056C44.7422 17.8587 44.9902 17.5893 45.1609 17.248C45.3315 16.9067 45.4169 16.5227 45.4169 16.096V15.88H46.7769V16.184C46.7769 16.9093 46.6195 17.5173 46.3049 18.008C45.9955 18.504 45.5769 18.8773 45.0489 19.128C44.5209 19.384 43.9289 19.512 43.2729 19.512ZM45.4169 16V14.72C45.3742 14.8533 45.2489 15.0373 45.0409 15.272C44.8382 15.5067 44.5582 15.72 44.2009 15.912C43.8489 16.0987 43.4329 16.192 42.9529 16.192C42.3449 16.192 41.7929 16.048 41.2969 15.76C40.8062 15.472 40.4142 15.0693 40.1209 14.552C39.8329 14.0293 39.6889 13.4187 39.6889 12.72C39.6889 12.0213 39.8329 11.4133 40.1209 10.896C40.4142 10.3733 40.8062 9.968 41.2969 9.68C41.7929 9.38667 42.3449 9.24 42.9529 9.24C43.4275 9.24 43.8382 9.32533 44.1849 9.496C44.5369 9.66667 44.8169 9.864 45.0249 10.088C45.2382 10.312 45.3635 10.504 45.4009 10.664V9.432H46.7769V16H45.4169ZM41.0649 12.72C41.0649 13.1947 41.1689 13.6053 41.3769 13.952C41.5849 14.2987 41.8542 14.568 42.1849 14.76C42.5209 14.9467 42.8782 15.04 43.2569 15.04C43.6622 15.04 44.0249 14.944 44.3449 14.752C44.6649 14.56 44.9182 14.2907 45.1049 13.944C45.2915 13.592 45.3849 13.184 45.3849 12.72C45.3849 12.256 45.2915 11.8507 45.1049 11.504C44.9182 11.152 44.6649 10.88 44.3449 10.688C44.0249 10.4907 43.6622 10.392 43.2569 10.392C42.8782 10.392 42.5209 10.488 42.1849 10.68C41.8542 10.872 41.5849 11.1413 41.3769 11.488C41.1689 11.8347 41.0649 12.2453 41.0649 12.72ZM52.6518 16V4.992H54.0598V10.664C54.0918 10.4987 54.2171 10.304 54.4358 10.08C54.6544 9.856 54.9478 9.66133 55.3158 9.496C55.6838 9.32533 56.1078 9.24 56.5878 9.24C57.2011 9.24 57.7451 9.38667 58.2198 9.68C58.6944 9.968 59.0678 10.3733 59.3398 10.896C59.6171 11.4133 59.7558 12.0213 59.7558 12.72C59.7558 13.4187 59.6171 14.0293 59.3398 14.552C59.0678 15.0693 58.6944 15.472 58.2198 15.76C57.7451 16.048 57.2011 16.192 56.5878 16.192C56.1344 16.192 55.7238 16.1067 55.3558 15.936C54.9931 15.7653 54.6971 15.5653 54.4678 15.336C54.2384 15.1067 54.0944 14.9013 54.0358 14.72V16H52.6518ZM58.3718 12.72C58.3718 12.2453 58.2758 11.8347 58.0838 11.488C57.8918 11.1413 57.6358 10.872 57.3158 10.68C57.0011 10.488 56.6544 10.392 56.2758 10.392C55.8651 10.392 55.4918 10.4907 55.1558 10.688C54.8198 10.88 54.5531 11.152 54.3558 11.504C54.1584 11.8507 54.0598 12.256 54.0598 12.72C54.0598 13.184 54.1584 13.592 54.3558 13.944C54.5531 14.2907 54.8198 14.56 55.1558 14.752C55.4918 14.944 55.8651 15.04 56.2758 15.04C56.6544 15.04 57.0011 14.9467 57.3158 14.76C57.6358 14.568 57.8918 14.2987 58.0838 13.952C58.2758 13.6053 58.3718 13.1947 58.3718 12.72ZM63.8024 14.728L66.0184 9.432H67.4104L62.9784 19.328H61.5704L63.0584 16L60.3544 9.432H61.7704L63.8024 14.728Z" fill="#666E84"/>
<g clip-path="url(#clip0_47_3001)">
<path d="M73.8 9.79999L77 13L80.2 9.79999" stroke="#666E84" stroke-width="1.2" stroke-linecap="round" stroke-linejoin="round"/>
</g>
<defs>
<clipPath id="clip0_47_3001">
<rect width="4.8" height="8" fill="white" transform="translate(81 9) rotate(90)"/>
</clipPath>
</defs>
</svg>
