<svg width="73" height="22" viewBox="0 0 73 22" fill="none" xmlns="http://www.w3.org/2000/svg">
<path d="M4.52688 16L0.366875 4.8H2.09488L5.48688 14.336L8.91088 4.8H10.6069L6.44688 16H4.52688ZM12.1219 16V7.968H13.7219V16H12.1219ZM12.9219 6.432C12.6232 6.432 12.3725 6.336 12.1699 6.144C11.9779 5.952 11.8819 5.70667 11.8819 5.408C11.8819 5.12 11.9779 4.88533 12.1699 4.704C12.3725 4.512 12.6232 4.416 12.9219 4.416C13.2312 4.416 13.4872 4.512 13.6899 4.704C13.8925 4.88533 13.9939 5.12 13.9939 5.408C13.9939 5.70667 13.8925 5.952 13.6899 6.144C13.4872 6.336 13.2312 6.432 12.9219 6.432ZM19.6739 16.192C18.8952 16.192 18.2072 16.0213 17.6099 15.68C17.0125 15.328 16.5432 14.8373 16.2019 14.208C15.8712 13.5787 15.7059 12.8427 15.7059 12C15.7059 11.1573 15.8712 10.4213 16.2019 9.792C16.5432 9.16267 17.0125 8.672 17.6099 8.32C18.2072 7.95733 18.9005 7.776 19.6899 7.776C20.4792 7.776 21.1565 7.952 21.7219 8.304C22.2872 8.64533 22.7245 9.10933 23.0339 9.696C23.3432 10.272 23.4979 10.912 23.4979 11.616C23.4979 11.7227 23.4979 11.84 23.4979 11.968C23.4979 12.0853 23.4872 12.2133 23.4659 12.352H16.8739V11.232H21.8979C21.8659 10.5707 21.6419 10.0533 21.2259 9.68C20.8099 9.296 20.2925 9.104 19.6739 9.104C19.2472 9.104 18.8472 9.2 18.4739 9.392C18.1112 9.584 17.8179 9.872 17.5939 10.256C17.3805 10.6293 17.2739 11.104 17.2739 11.68V12.128C17.2739 12.7253 17.3805 13.2267 17.5939 13.632C17.8179 14.0373 18.1112 14.3467 18.4739 14.56C18.8365 14.7627 19.2312 14.864 19.6579 14.864C20.1699 14.864 20.5912 14.752 20.9219 14.528C21.2632 14.2933 21.5139 13.984 21.6739 13.6H23.2739C23.1245 14.1013 22.8845 14.5493 22.5539 14.944C22.2339 15.328 21.8285 15.632 21.3379 15.856C20.8579 16.08 20.3032 16.192 19.6739 16.192ZM26.579 16L24.227 7.968H25.811L27.571 14.704L27.251 14.688L29.203 7.968H30.995L32.963 14.688H32.627L34.387 7.968H35.987L33.635 16H31.987L29.939 9.008H30.275L28.227 16H26.579ZM48.2913 16.192C47.6299 16.192 47.0806 16.08 46.6432 15.856C46.2059 15.632 45.8806 15.3333 45.6673 14.96C45.4539 14.5867 45.3473 14.176 45.3473 13.728C45.3473 13.2053 45.4806 12.7573 45.7473 12.384C46.0246 12 46.4193 11.7067 46.9313 11.504C47.4539 11.3013 48.0726 11.2 48.7873 11.2H50.8833C50.8833 10.7307 50.8139 10.3413 50.6753 10.032C50.5366 9.72267 50.3286 9.49333 50.0513 9.344C49.7846 9.184 49.4433 9.104 49.0273 9.104C48.5473 9.104 48.1313 9.22133 47.7793 9.456C47.4379 9.69067 47.2299 10.032 47.1553 10.48H45.5393C45.6033 9.904 45.7953 9.41867 46.1153 9.024C46.4459 8.61867 46.8673 8.30933 47.3793 8.096C47.8913 7.88267 48.4406 7.776 49.0273 7.776C49.7739 7.776 50.4033 7.90933 50.9153 8.176C51.4379 8.44267 51.8273 8.82133 52.0833 9.312C52.3499 9.792 52.4833 10.3627 52.4833 11.024V16H51.0913L50.9633 14.64C50.8459 14.8533 50.7073 15.056 50.5473 15.248C50.3873 15.44 50.1953 15.6053 49.9713 15.744C49.7579 15.8827 49.5073 15.9893 49.2193 16.064C48.9419 16.1493 48.6326 16.192 48.2913 16.192ZM48.5953 14.896C48.9366 14.896 49.2459 14.8267 49.5233 14.688C49.8006 14.5493 50.0353 14.3627 50.2273 14.128C50.4299 13.8827 50.5793 13.6107 50.6753 13.312C50.7819 13.0133 50.8406 12.6987 50.8513 12.368V12.336H48.9473C48.4886 12.336 48.1153 12.3947 47.8273 12.512C47.5499 12.6187 47.3473 12.768 47.2193 12.96C47.0913 13.152 47.0273 13.376 47.0273 13.632C47.0273 13.888 47.0859 14.112 47.2033 14.304C47.3313 14.4853 47.5126 14.6293 47.7473 14.736C47.9819 14.8427 48.2646 14.896 48.5953 14.896ZM54.5255 16V4.48H56.1255V16H54.5255ZM58.3068 16V4.48H59.9068V16H58.3068Z" fill="#00B0B9"/>
<g clip-path="url(#clip0_1206_5173)">
<path d="M68 15L72 11L68 7" stroke="#00B0B9" stroke-width="1.2" stroke-linecap="round" stroke-linejoin="round"/>
</g>
<defs>
<clipPath id="clip0_1206_5173">
<rect width="6" height="10" fill="white" transform="translate(67 6)"/>
</clipPath>
</defs>
</svg>
